<svg xmlns="http://www.w3.org/2000/svg" xmlns:xlink="http://www.w3.org/1999/xlink" version="1.1" width="4524.999999552965" enable-background="new 0 0 4500 921" xml:space="preserve" height="1070.0000008940697"><rect id="backgroundrect" width="100%" height="100%" x="0" y="0" fill="none" stroke="none"/>




















































































































































































































































































































































































































































































































































































































<g class="currentLayer" style=""><title>Layer 1</title><path fill="#172740" opacity="1.000000" stroke="none" d="M462.376221,110.30568495312491 C468.124878,106.35731895312506 473.515137,101.6875349531249 479.69909699999994,98.6152739531251 C491.485779,92.759493953125 502.633911,95.33129595312494 512.7705080000001,103.25939795312502 C515.5898440000001,105.46446195312501 518.4356379999999,107.63568695312506 521.625488,110.39711395312497 C524.944885,112.85565595312505 527.908081,114.73952895312505 531.111206,116.77794995312502 C534.84845,119.3830569531251 538.345825,121.83361795312499 542.043884,124.56785995312498 C555.455078,132.660697953125 568.665527,140.46985595312503 582.259155,148.2494579531251 C590.50415,152.44893695312498 598.273865,156.86302995312508 606.261475,160.83947795312497 C611.271912,163.33378595312502 616.609741,165.17049395312506 622.024414,167.5888819531251 C628.853271,170.337485953125 635.458435,172.7994769531249 642.052429,175.63358295312491 C648.527588,178.44177995312498 655.013855,180.87785295312506 661.937073,183.47803495312496 C661.937073,180.21723895312493 661.937073,177.7598569531251 662.408936,175.2777709531249 C669.27301,175.265388953125 675.665283,175.27770995312494 682.068359,175.7588729531251 C682.079224,180.83589195312493 682.079224,185.44405395312492 682.079224,190.1940229531251 C689.015747,191.9783859531251 695.583557,193.667907953125 702.406616,195.3151859531249 C702.826599,195.324294953125 702.991272,195.37564095312496 703.353821,195.72558595312512 C709.5023189999999,197.4732439531249 715.452881,198.92230995312502 721.690002,200.4411469531251 C721.819031,198.5258789531249 721.928833,196.89581295312496 722.047485,195.302588953125 C722.056274,195.33943195312509 721.990967,195.37776995312493 722.456726,195.31895495312506 C729.301636,195.2717059531251 735.680786,195.2832789531251 742.069214,195.7475129531249 C742.078491,198.82463095312505 742.078491,201.44908095312508 742.078491,204.6644749531249 C748.873474,205.57517195312494 755.509155,206.46452295312497 762.520264,207.48228495312492 C768.348755,208.24074595312504 773.801819,208.87078095312495 779.581482,209.70654295312488 C787.337646,210.39575995312498 794.767212,210.8792649531249 802.608032,211.3398819531251 C809.333557,211.65609695312492 815.647766,211.9952159531249 822.430603,212.38424695312506 C829.289612,212.40388495312504 835.680054,212.37361895312506 842.519958,212.30342895312492 C845.993713,212.27902995312502 849.018005,212.29454795312495 852.507202,212.322310953125 C862.670044,213.3474809531249 872.367981,214.36041995312507 882.065857,215.37335195312494 C882.065857,215.37335195312494 881.966858,215.3663479531251 882.017944,215.74114995312493 C882.229553,217.81161495312494 881.953735,219.71012895312492 882.630371,221.165923953125 C884.895264,226.03872695312498 887.500671,230.75326495312493 889.975586,235.52842695312506 C890.337646,241.837569953125 890.699707,248.1466979531251 891.038574,255.39080795312498 C891.335022,262.7321169531251 891.654724,269.13848895312503 891.974487,275.5448459531249 C891.987122,281.852752953125 891.999756,288.1606599531251 892.008484,295.40527295312495 C892.014526,302.64504995312495 892.024536,308.9481509531249 892.034546,315.25123595312493 C892.056763,321.5888819531251 892.079041,327.926543953125 891.956421,335.17507895312497 C891.545105,344.5003049531251 891.278687,352.91467295312486 891.012207,361.329009953125 C891.024231,363.47836295312504 891.036255,365.62771595312506 890.782593,368.5753169531249 C890.017334,378.3490599531251 889.517761,387.3245539531249 889.018188,396.30007895312497 C888.726196,402.27432295312497 888.434265,408.248595953125 887.853516,414.99938995312505 C887.030823,422.38528395312505 886.497009,428.99465895312505 885.963135,435.60403395312505 C885.312439,441.3799439531249 884.661804,447.1558529531251 883.754028,453.67922995312506 C882.923035,459.2100529531249 882.249878,463.984557953125 881.819702,468.7808529531251 C881.623779,470.9656679531249 881.908142,473.1935729531251 881.974609,475.401916953125 C881.97467,475.401916953125 881.967407,475.303985953125 881.641968,475.41265895312495 C880.215759,482.11984295312504 879.114929,488.7183839531249 878.02533,495.6603999531251 C877.036743,502.389220953125 876.036804,508.77459695312496 874.827393,515.498656953125 C873.423584,522.1651309531251 872.22937,528.4929499531249 870.930908,535.372924953125 C874.825439,535.372924953125 878.445862,535.372924953125 882.066284,535.372924953125 C882.066284,535.372924953125 881.967468,535.3663639531251 882.020508,535.7866519531249 C882.035645,542.604247953125 881.997742,549.001555953125 881.959839,555.398864953125 C881.959839,555.398864953125 881.967346,555.3002319531249 881.548828,555.351623953125 C876.480347,555.403045953125 871.830322,555.403045953125 866.569824,555.403045953125 C865.351257,562.1536259531249 864.154846,568.7812499531251 862.976929,575.3637089531251 C862.995483,575.3185119531249 863.091492,575.340117953125 862.796997,575.1962889531251 C862.348206,575.4497379531249 862.193848,575.846984953125 861.989746,576.6637569531249 C861.854553,577.3516539531249 861.769104,577.6200259531249 861.562622,578.1954649531249 C859.969849,584.426604953125 858.497986,590.3506779531249 857.029297,596.6813659531249 C855.353394,603.1468509531251 853.674255,609.205749953125 851.825378,615.599242953125 C849.764099,622.442565953125 847.872559,628.9512329531249 846.052246,635.791320953125 C845.623108,637.6375729531251 845.140747,639.1585079531251 844.619812,640.666076953125 C840.726257,651.9334109531251 836.824951,663.1980589531249 832.609131,674.6086429531251 C829.86084,681.643065953125 827.429565,688.5324099531249 824.997742,695.373290953125 C824.997192,695.3247069531249 825.094177,695.320983953125 824.763794,695.2462769531248 C824.284363,695.585448953125 824.135376,695.999389953125 824.051758,696.7877809531251 C823.296814,698.617919953125 822.47644,700.073607953125 821.523193,701.828612953125 C819.604858,706.5022579531251 817.819458,710.876708953125 815.994995,715.6221919531249 C812.989685,722.3753049531251 810.023438,728.757384953125 806.753174,735.3330689531249 C804.846985,739.1677859531251 803.244751,742.808898953125 801.462585,746.715087953125 C799.875977,749.691710953125 798.469299,752.403319953125 796.752136,755.2927859531251 C792.954773,762.2818599531251 789.467834,769.0929569531249 785.847839,776.185058953125 C784.462219,778.437621953125 783.209717,780.4090579531248 781.619995,782.4390259531251 C778.855042,786.789733953125 776.427246,791.082030953125 773.871948,795.6903079531251 C764.80603,808.821105953125 755.867737,821.6359249531251 746.601562,834.5159299531251 C744.741699,836.863036953125 743.209778,839.145019953125 741.444092,841.643493953125 C737.802734,846.0239869531251 734.395203,850.187987953125 730.661255,854.437377953125 C727.454773,858.156066953125 724.574585,861.789550953125 721.462708,865.6439819531251 C718.516846,868.9028319531249 715.802795,871.940795953125 712.721313,874.9595339531252 C708.815735,878.7602539531249 705.277649,882.5802609531252 701.508667,886.6147459531248 C698.546387,889.5526729531248 695.814941,892.2761839531249 692.719116,895.003600953125 C688.803528,898.474181953125 685.25238,901.9408569531251 681.477661,905.629394953125 C677.873962,908.8643189531249 674.493835,911.877563953125 670.745483,914.738585953125 C667.46814,917.1978759531248 664.559143,919.8094479531251 661.449951,922.6699829531249 C655.866516,926.9240719531249 650.483215,930.9290769531249 644.710449,934.8437499531251 C643.43219,935.642577953125 642.543274,936.531798953125 641.44281,937.674438953125 C635.011292,942.056579953125 628.79126,946.1852419531251 622.182983,950.2786869531251 C619.228027,951.9177859531251 616.661438,953.5922239531251 613.793457,955.4548339531248 C609.852295,957.8648679531252 606.212524,960.086608953125 602.174683,962.2964479531252 C595.633789,965.4500119531249 589.442566,968.528319953125 583.404175,971.8818969531249 C582.569336,972.345519953125 582.490784,974.170959953125 581.623779,975.388183953125 C579.426941,975.4363399531248 577.438293,974.934569953125 575.951477,975.583251953125 C570.597473,977.9188839531253 565.412659,980.6425169531249 559.848267,983.4210819531249 C553.638916,985.8783569531251 547.745361,988.1341549531248 541.521484,990.5206299531251 C537.555542,992.156066953125 533.9198,993.660766953125 529.962891,995.363280953125 C527.279114,996.4755249531249 524.916565,997.3898929531251 522.12915,998.2459719531253 C514.739594,1000.358764953125 507.774994,1002.5297849531253 501.71167,1004.4197999531252 C501.82522599999993,1006.749022953125 501.91262800000004,1008.5411379531251 502,1010.333251953125 C495.64559899999995,1010.333251953125 489.291199,1010.333251953125 482.4320680000001,1009.9123539531251 C481.92733799999996,1007.8447269531252 481.92733799999996,1006.1980589531249 481.92733799999996,1004.0836179531252 C475.241852,1002.151061953125 468.63205,1000.2403559531249 461.781921,998.054748953125 C458.956421,996.923522953125 456.371307,996.0672609531248 453.607483,994.9249269531251 C449.63559,993.2116699531252 445.842407,991.784423953125 441.663239,990.3945919531252 C434.910187,987.7507319531251 428.543152,985.0695189531252 421.969421,982.092345953125 C415.202881,979.5111079531252 409.670837,974.053222953125 401.934326,975.0241699531252 C401.96637,973.893798953125 402.291168,972.5637819531248 402.004669,972.4157099531249 C395.354034,968.9755859531251 388.637085,965.6636959531252 381.617554,962.200683953125 C377.536041,959.819457953125 373.76944,957.565673953125 369.975128,954.9637449531251 C367.261841,953.1837769531248 364.576263,951.752074953125 361.577667,950.2011719531251 C355.129761,945.8022459531248 348.994873,941.5224609531251 342.723907,936.9006349531251 C341.102844,935.7221069531251 339.617889,934.885741953125 337.888916,933.9130859531251 C332.725128,929.936522953125 327.805328,926.096313953125 322.817383,921.9316409531248 C319.805054,919.4210209531248 316.860931,917.234801953125 313.712585,914.8016359531248 C309.805481,911.514709953125 306.102539,908.474792953125 302.487457,905.0632319531251 C298.67627,901.4366459531248 294.777191,898.181579953125 290.627502,894.7478029531248 C287.705872,891.8543089531249 285.034882,889.139525953125 282.399628,886.0554199531252 C278.6008,881.8986209531249 274.766266,878.111327953125 270.612427,874.217040953125 C267.674377,871.2216799531252 265.055649,868.3331909531253 262.57818599999996,865.075683953125 C259.79248,861.5042729531251 256.865524,858.302001953125 253.73245199999997,854.8562009531252 C249.82223499999998,850.221190953125 246.118134,845.8297119531248 242.54357900000002,841.070434953125 C241.09475699999996,838.834533953125 239.51640299999997,836.966369953125 237.722672,834.858031953125 C234.92926,831.206969953125 232.42865,827.733825953125 229.75064099999997,824.403380953125 C227.260376,821.3064579531251 224.5811,818.361449953125 221.98400900000001,814.983275953125 C218.03515600000003,808.199096953125 214.087357,801.781127953125 210.280334,795.0075679531251 C207.651642,790.274230953125 204.882172,785.896483953125 201.939819,781.214477953125 C200.548889,779.058166953125 199.330811,777.2061159531249 198.244049,774.9949339531249 C194.622635,767.928161953125 190.869888,761.220458953125 186.928375,754.2030639531249 C185.269196,751.069091953125 183.798798,748.244872953125 182.341537,745.0339359531249 C180.61232,741.276122953125 178.86998,737.9050899531248 176.936722,734.215758953125 C173.841415,727.787597953125 170.937027,721.677733953125 168.12439,715.179687953125 C166.241241,710.1290889531251 164.266327,705.4664919531251 162.106689,700.4665529531248 C161.275635,698.521667953125 160.629288,696.9143069531251 159.901245,694.9512939531251 C157.204437,688.1303099531251 154.58934,681.664855953125 151.739624,674.913634953125 C147.015411,661.6193849531251 142.525818,648.6109009531251 138.147919,635.193786953125 C136.158363,628.203246953125 134.057114,621.621337953125 131.928581,614.6535639531248 C130.256683,607.9310299531248 128.612076,601.5944209531249 126.94260400000002,594.867248953125 C125.35817700000001,588.5633549531249 123.798607,582.6501159531249 122.12912,576.3890989531251 C122.007294,575.798491953125 121.99539199999998,575.5556339531249 121.96199000000001,574.917480953125 C120.278481,568.0346989531249 118.616455,561.5472409531251 116.91745800000001,554.6550899531251 C115.60188299999999,548.0047909531249 114.32328000000001,541.7591859531249 113.10943600000002,535.0808109531249 C111.84840400000002,527.644286953125 110.522606,520.6404719531249 109.08921800000002,513.1978149531251 C108.003807,507.014220953125 107.02598599999999,501.26943995312513 106.121376,495.07714795312495 C105.387718,488.549651953125 104.615929,482.464416953125 103.702347,476.4005739531249 C103.63476600000001,475.9519349531249 102.54714200000001,475.65698195312507 101.933731,475.29058795312494 C101.933739,475.29058795312494 102.033928,475.29873695312494 101.98203999999998,474.92553695312495 C101.36004600000001,466.6074829531249 100.78995500000002,458.66262795312514 100.219856,450.717742953125 C99.80192599999998,446.518493953125 99.384003,442.319213953125 98.95507800000001,437.25897195312496 C98.273811,428.76919595312506 97.603546,421.14041095312496 96.933281,413.51159695312504 C96.285583,407.778319953125 95.63788599999998,402.045012953125 95.069504,395.43048095312497 C94.76116200000001,388.14932295312497 94.373512,381.74938995312505 93.98587,375.3494569531249 C93.62860899999998,368.9921269531251 93.27134699999999,362.634765953125 93.00808699999999,355.37438995312505 C93.07915500000001,353.313476953125 93.05818199999999,352.15557895312486 93.032997,350.9977419531251 C92.785461,339.6167449531249 92.537239,328.2357639531251 92.2892,316.8547669531249 C92.19977599999999,316.64366195312505 92.110344,316.432540953125 92.11874399999999,315.40388495312504 C92.15412900000001,308.10006695312495 92.09169,301.61376995312503 92.02925099999999,295.12748695312507 C92.025238,294.897140953125 92.021233,294.6667939531251 92.043304,293.7625429531249 C92.37619000000001,280.513183953125 92.682999,267.937774953125 92.98980699999998,255.3623509531251 C93.302986,249.584914953125 93.616165,243.80747995312504 94.27553599999999,237.3006899531249 C96.110397,232.59120195312494 96.95605499999999,228.17369095312506 99.27787799999999,224.76028395312505 C101.38344599999999,221.66477995312493 102.67084499999999,218.8978579531249 102.041199,215.2676009531251 C102.041199,215.2676009531251 102.033379,215.36678295312504 102.430428,215.31501795312488 C104.96211199999999,215.30210895312507 107.513802,216.123466953125 109.16009500000001,215.24604795312507 C116.79873700000002,211.1748959531251 124.942467,212.48186495312507 133.41317700000002,212.29904195312497 C136.555481,212.30534395312498 139.247955,212.3244779531251 142.409851,212.39882695312508 C149.265732,212.41442895312503 155.652237,212.374816953125 162.503357,212.30373395312495 C169.259369,211.96745295312508 175.550751,211.662642953125 182.308243,211.4383999531251 C190.107513,210.83883695312488 197.440643,210.15870695312492 205.22229,209.3707049531249 C211.077408,208.62448095312493 216.48400900000001,207.9861299531251 222.32833900000003,207.4049449531251 C229.089813,206.51997395312492 235.41352800000004,205.57782795312505 241.93983500000002,204.6055069531251 C241.93983500000002,201.20858795312506 241.93983500000002,198.25191495312492 242.411591,195.2738189531251 C249.25877400000002,195.2939379531249 255.634186,195.33546495312498 261.97692900000004,195.35784895312509 C261.944275,195.338698953125 261.96227999999996,195.26515195312504 262.005585,195.69094895312492 C262.13795500000003,197.49503295312502 262.227036,198.87331395312503 262.355591,200.8621979531249 C268.925262,198.9242479531249 274.934143,197.15172595312492 281.137817,195.31166095312506 C281.332611,195.24410995312496 281.724091,195.373595953125 282.140381,195.40812695312502 C289.156342,193.39060195312504 295.755981,191.33853895312495 302.734131,189.24807695312506 C309.38092,187.25488995312503 315.64917,185.30009495312493 322.297791,183.304519953125 C326.544952,181.896522953125 330.468018,180.66679395312508 334.259186,179.11487595312497 C336.884338,178.04026795312507 339.327606,176.521338953125 342.122925,175.550696953125 C349.016052,173.03402695312502 355.638397,170.16760995312507 362.603333,167.2400059531251 C375.997253,160.88315595312497 389.048523,154.58750195312496 402.435913,148.21634295312492 C408.598663,144.8652149531249 414.463135,141.65339995312502 420.210846,138.24466695312503 C421.066681,137.7371099531249 421.373047,136.3030279531249 422.335815,135.27893095312493 C423.680359,135.2315749531249 424.84259,135.55205495312498 425.530334,135.11902995312494 C431.14727800000003,131.5823979531251 436.67569,127.90513995312494 442.483276,124.05108595312504 C446.794464,121.10857795312495 450.853394,118.38561995312511 455.282593,115.66815795312505 C457.894012,113.88433495312506 460.135101,112.09501495312497 462.376221,110.30568495312491 M491.2317499999999,181.6120609531249 C489.16226200000006,182.63853495312492 486.96109,183.464011953125 485.042542,184.720855953125 C436.135254,216.760436953125 383.845032,241.70353695312497 328.037231,259.116759953125 C279.019836,274.41117895312505 228.855499,283.460906953125 177.493332,285.547683953125 C168.489532,285.913497953125 166.170319,288.154403953125 166.071014,296.904540953125 C165.588562,339.4167019531251 167.593658,381.81445295312506 171.767166,424.1246339531249 C177.02182,477.39495895312507 185.949234,529.999969953125 199.977707,581.6875919531249 C217.97148100000004,647.9851689531251 243.53094499999997,710.976928953125 282.114807,768.2042849531249 C324.668701,831.3200679531251 379.260223,880.6937259531251 448.690613,912.7653199531251 C462.831268,919.2972409531249 477.732391,924.1828609531249 493.049347,929.7937009531252 C493.85458399999993,929.580199953125 494.67703200000005,929.416686953125 495.462616,929.146178953125 C566.520081,904.6745609531249 625.875793,863.2819819531251 673.847534,805.527587953125 C715.767578,755.0589599531249 745.151917,697.654540953125 766.926636,636.1154789531251 C788.726685,574.504760953125 801.994385,510.927764953125 809.846069,446.1734009531251 C815.904419,396.209685953125 818.697876,346.03744495312503 818.102783,295.693755953125 C818.022949,288.94016995312495 815.267212,285.9434809531249 808.5755,285.51072695312496 C802.598511,285.1241759531249 796.614685,284.84461995312495 790.636353,284.4776459531249 C759.842102,282.5873109531251 729.469421,277.7839809531249 699.457825,270.7795869531251 C627.721924,254.03715495312508 561.194702,225.122603953125 499.557495,184.83632695312508 C497.29635600000006,183.35845195312504 494.480774,182.72888195312498 491.2317499999999,181.6120609531249 z" id="svg_2" class=""/><path fill="#FEFFFA" opacity="1.000000" stroke="none" d="M2410.719238,391.6790769531249 C2413.416016,403.37979095312494 2415.840576,414.72601295312506 2418.334717,426.05688495312506 C2422.87085,446.665557953125 2427.424316,467.27059895312505 2432.017334,487.86672995312506 C2435.312256,502.64276095312493 2438.665527,517.4058839531249 2442.02417,532.1676329531251 C2446.66748,552.5770569531251 2451.317871,572.9849849531249 2456.008545,593.383605953125 C2459.290039,607.655272953125 2462.660645,621.9064939531249 2465.932129,636.1805419531252 C2466.183838,637.279174953125 2465.965332,638.485717953125 2466.75,639.8489989531249 C2467.49292,637.653747953125 2468.364258,635.492675953125 2468.958496,633.2580569531251 C2475.151611,609.973815953125 2481.264893,586.668365953125 2487.469971,563.387359953125 C2495.617432,532.8178099531251 2503.638916,502.212890953125 2512.059326,471.7183839531249 C2522.183594,435.05273395312497 2532.444824,398.42129495312497 2543.114746,361.911834953125 C2547.162354,348.0619969531249 2555.822998,336.79878195312494 2568.458496,329.8832699531249 C2575.145996,326.2230679531249 2583.305176,324.26528895312504 2590.971191,323.639586953125 C2599.684814,322.928390953125 2608.857422,323.419433953125 2617.356689,325.4107359531249 C2636.058105,329.792418953125 2647.417969,343.138717953125 2652.792969,360.70223995312494 C2662.183594,391.387328953125 2670.377686,422.43926995312495 2679.017578,453.353118953125 C2686.968018,481.80093395312497 2694.973145,510.234557953125 2702.71875,538.7384639531251 C2710.63623,567.8761599531249 2718.244629,597.0977779531249 2726.046875,626.267028953125 C2727.278564,630.872497953125 2728.820312,635.395141953125 2730.429932,640.644286953125 C2733.435791,626.887633953125 2736.23877,613.895141953125 2739.11792,600.9195249531249 C2743.723145,580.1658329531251 2748.356201,559.418242953125 2753.021729,538.6780089531251 C2755.636719,527.053924953125 2758.362793,515.4549559531251 2761.000732,503.83596795312496 C2765.350098,484.676330953125 2769.648193,465.50506595312504 2774.004639,446.34704595312496 C2779.288574,423.11019895312506 2784.42627,399.83764695312493 2789.998535,376.66986095312495 C2792.542236,366.0937499531251 2794.854248,355.22848495312496 2799.269043,345.39096095312493 C2805.802246,330.8329929531251 2817.344482,322.99034095312504 2834.319824,323.1040039531249 C2847.442627,323.191863953125 2858.937012,326.297362953125 2867.828369,335.8640589531251 C2877.005371,345.7383879531251 2880.100586,357.45385695312507 2878.227783,371.2651979531249 C2873.398926,406.87304695312514 2862.512207,441.014770953125 2854.173584,475.76751695312487 C2846.706299,506.8885799531249 2838.803711,537.905150953125 2831.115723,568.9732969531251 C2823.736084,598.794372953125 2816.538818,628.6614989531249 2808.978516,658.436461953125 C2801.50708,687.862548953125 2794.333496,717.390746953125 2785.758545,746.499816953125 C2780.841553,763.1915279531249 2770.031494,776.406737953125 2752.165527,780.4728999531249 C2730.505127,785.402648953125 2709.927002,783.6521609531251 2693.68457,765.600463953125 C2685.739258,756.770080953125 2682.217529,745.926391953125 2679.084717,734.9722289531251 C2672.155029,710.741393953125 2665.62085,686.3971559531251 2658.971924,662.0865479531249 C2652.574707,638.6984249531251 2646.186279,615.3077999531251 2639.883301,591.8941959531251 C2631.199707,559.6372989531251 2622.6604,527.3415529531251 2613.94043,495.09454395312514 C2609.179932,477.49060095312507 2604.174805,459.95291095312496 2598.915771,441.0788269531249 C2596.733887,448.54049695312506 2594.77832,454.84237695312504 2593.050293,461.205901953125 C2587.158203,482.90176395312506 2581.358398,504.6226809531249 2575.500488,526.327788953125 C2566.337402,560.278808953125 2557.279541,594.259002953125 2547.946533,628.163268953125 C2538.447021,662.672851953125 2528.748047,697.128234953125 2518.962158,731.5577999531251 C2516.113281,741.580443953125 2513.086914,751.6140139531249 2506.99707,760.3193969531249 C2497.027588,774.5711669531252 2483.645508,782.3634639531251 2465.942627,782.382934953125 C2456.105469,782.3937379531249 2446.287354,782.589721953125 2437.22583,777.9802859531251 C2424.877197,771.6989749531249 2416.191406,761.648437953125 2412.205322,748.740661953125 C2404.820557,724.827025953125 2398.324951,700.6212159531251 2392.079834,676.3771359531252 C2382.532471,639.313537953125 2373.476807,602.122863953125 2364.278564,564.969787953125 C2356.470215,533.4311219531251 2348.764404,501.867156953125 2340.996826,470.31835895312497 C2334.845703,445.33328295312504 2328.383057,420.41995195312506 2322.645508,395.34048495312504 C2320.300293,385.089324953125 2318.451172,374.50781295312504 2318.215576,364.03527795312493 C2317.699219,341.063476953125 2336.049316,323.115661953125 2358.629883,323.29338095312505 C2367.286133,323.36154195312497 2375.553955,323.7229309531249 2383.632812,328.058761953125 C2391.264404,332.1547999531249 2395.224365,338.80192595312496 2397.62085,345.9577639531251 C2402.606445,360.8433839531249 2406.270752,376.1714479531249 2410.719238,391.6790769531249 z" id="svg_41" class=""/><path fill="#FEFFFA" opacity="1.000000" stroke="none" d="M1304,581.333251953125 C1304,510.34039295312505 1303.81958,439.846679953125 1304.151855,369.35537695312496 C1304.218628,355.2027279531251 1307.419067,341.475142953125 1319.194458,331.700591953125 C1324.993042,326.887191953125 1331.612305,323.388778953125 1339.357178,323.40599095312496 C1347.301514,323.42364495312495 1355.223145,322.5528559531249 1363.01709,326.1481479531251 C1372.508545,330.5266419531249 1378.909058,337.39167795312505 1382.95166,346.6729429531249 C1387.19104,356.4060969531249 1387.854858,366.94522095312504 1387.872925,377.263457953125 C1388.073853,492.418120953125 1388.111084,607.5734859531249 1387.847412,722.7279049531248 C1387.817261,735.9367679531251 1386.678955,749.329894953125 1380.005859,761.4130859531251 C1372.612183,774.8009639531251 1360.883179,781.420775953125 1346.046265,782.190734953125 C1336.614502,782.6802369531251 1327.115845,783.031798953125 1317.769043,779.815734953125 C1304.969604,775.4116209531248 1295.082886,766.9771119531251 1287.365234,756.6943359531251 C1274.60144,739.688048953125 1262.992065,721.7960819531249 1251.271973,704.029479953125 C1227.141602,667.4504399531252 1203.223389,630.7312009531252 1179.288818,594.023467953125 C1165.831665,573.3848569531251 1152.532959,552.643035953125 1139.131104,531.9682919531251 C1126.344604,512.2429499531249 1113.516846,492.5443119531251 1100,471.74572795312497 C1100,474.346679953125 1100,475.99569695312493 1100,477.6447139531251 C1100,564.469268953125 1100.088013,651.294005953125 1099.915161,738.1181639531251 C1099.885742,752.9547119531248 1094.445801,765.9543459531251 1082.420898,775.1630249531249 C1076.838501,779.4381709531249 1070.227661,782.2316899531252 1062.7854,782.378905953125 C1052.4054569999998,782.584167953125 1042.450562,782.108275953125 1033.470886,775.558105953125 C1024.251953,768.8333739531249 1018.9898069999999,759.7930299531249 1017.187439,749.040099953125 C1015.621948,739.699828953125 1015.0980829999999,730.0902099531249 1015.0867309999999,720.598510953125 C1014.9520259999999,607.9434199531252 1014.860291,495.28768895312487 1015.1992190000001,382.63348395312505 C1015.236206,370.34173595312495 1016.3195799999999,357.71066295312494 1023.848755,346.82151795312507 C1034.3779909999998,331.59339895312496 1048.601746,324.0188139531251 1067.194214,323.1677249531249 C1084.103149,322.39369195312497 1097.668701,328.475997953125 1108.023071,341.14063995312495 C1115.350098,350.10259995312504 1121.414185,360.116851953125 1127.821533,369.80725095312505 C1143.104004,392.92031895312493 1158.177124,416.17196695312487 1173.477417,439.2732239531251 C1203.738647,484.963195953125 1234.133423,530.564818953125 1264.396851,576.2533869531251 C1277.360352,595.8242799531249 1290.133545,615.521117953125 1304,634.905639953125 C1304,617.214843953125 1304,599.5240479531249 1304,581.333251953125 z" id="svg_42" class=""/><path fill="#FEFFFA" opacity="1.000000" stroke="none" d="M1719.767578,782.3334959531248 C1706.455811,782.3333739531249 1693.618774,782.5384519531249 1680.790771,782.2865599531251 C1660.058228,781.879455953125 1639.800415,778.3471679531249 1619.825195,772.787108953125 C1604.900269,768.6327519531251 1590.330322,763.4821169531251 1577.03833,755.633544953125 C1565.119995,748.5960079531251 1553.508545,740.825255953125 1542.648193,732.254760953125 C1521.059326,715.2180789531249 1505.145996,693.3695679531252 1493.249756,668.7606809531248 C1484.070801,649.7725219531249 1477.222046,629.8518679531248 1474.047852,608.8831179531248 C1472.416138,598.103576953125 1470.803589,587.274108953125 1470.129517,576.4084779531249 C1469.257812,562.3567199531249 1468.168457,548.1520999531249 1469.298584,534.1853029531251 C1470.667603,517.2673039531251 1473.960449,500.4756469531251 1476.968506,483.727660953125 C1480.078857,466.4093629531251 1486.247192,449.968566953125 1494.12854,434.33178695312495 C1502.692261,417.34133895312493 1513.504395,401.8608089531249 1526.712524,387.91662595312505 C1551.139282,362.128692953125 1580.845337,345.11672995312506 1614.363525,334.9092259531251 C1629.719727,330.232665953125 1645.925659,328.2882539531249 1661.7948,325.36912495312504 C1681.506348,321.74320995312496 1701.494385,322.8067319531251 1721.280273,323.601226953125 C1745.743652,324.583556953125 1769.552979,329.97268695312505 1792.373169,339.31472795312493 C1807.051392,345.32368495312494 1821.018188,352.5888059531251 1833.380005,362.50033595312493 C1846.988525,373.4116519531249 1859.435913,385.63095095312497 1867.390869,401.4242249531251 C1871.681641,409.9427489531249 1875.334595,418.9131469531251 1878.12561,428.0315549531251 C1885.91748,453.4870609531249 1865.979858,478.5769039531251 1841.976929,480.568755953125 C1826.527344,481.85082995312496 1814.121948,477.1627809531251 1804.348755,465.909392953125 C1798.570923,459.25640895312495 1794.274292,451.3240359531251 1789.240356,444.016112953125 C1780.521362,431.358428953125 1771.566772,418.8319089531251 1758.391479,410.332854953125 C1746.982056,402.9728699531249 1734.911011,396.6554869531251 1721.140503,395.45053095312505 C1707.359009,394.2446289531249 1693.425415,392.8131099531249 1679.67981,393.59942595312486 C1656.587769,394.9204409531251 1635.297119,402.54675295312495 1616.445801,416.37582395312506 C1599.664673,428.68612695312504 1587.385254,444.673491953125 1578.606567,463.317229953125 C1571.24646,478.9478459531251 1566.7146,495.4565429531249 1563.834595,512.5697329531249 C1560.796753,530.6208189531251 1560.157227,548.7593989531251 1561.206177,566.8300479531249 C1562.823975,594.7007749531249 1567.746338,622.0086669531252 1580.981689,647.137755953125 C1593.287476,670.502074953125 1610.784424,688.7637329531249 1634.723267,700.180053953125 C1647.545288,706.294799953125 1661.164673,710.5087889531251 1675.497437,711.2630619531251 C1688.213379,711.932311953125 1701.014038,712.8852539531249 1713.682007,712.1259159531251 C1732.757202,710.9827269531252 1751.377319,706.6761479531251 1769.187012,699.600402953125 C1780.205322,695.2228999531249 1790.96106,690.1774899531251 1801.781982,685.3147579531251 C1804.556274,684.068053953125 1807.130859,682.377624953125 1809.908936,680.8287349531251 C1809.908936,656.945800953125 1809.908936,632.964721953125 1809.908936,608.333251953125 C1808.110474,608.333251953125 1806.355591,608.333251953125 1804.600708,608.333251953125 C1779.267944,608.333251953125 1753.92981,608.637328953125 1728.605347,608.1761479531251 C1719.138428,608.0037839531251 1709.76062,606.035094953125 1701.525879,600.489440953125 C1694.085693,595.478881953125 1690.30835,588.7484129531249 1689.934448,579.7694089531251 C1689.625977,572.3598329531251 1689.834717,565.3917849531249 1693.834106,558.601073953125 C1699.077759,549.6976929531249 1706.723145,544.7327879531249 1716.369263,542.417480953125 C1719.663452,541.626769953125 1723.157715,541.3830259531251 1726.561401,541.377166953125 C1766.393677,541.3087159531251 1806.228027,541.120177953125 1846.057129,541.477233953125 C1856.527832,541.5710749531249 1866.902588,543.494140953125 1875.979004,549.7293699531251 C1885.763794,556.451354953125 1891.161987,566.086303953125 1891.772217,577.3621219531251 C1892.901611,598.2310489531251 1892.753052,619.172912953125 1892.970581,640.0861209531249 C1893.123047,654.7508549531249 1892.50647,669.438781953125 1893.110596,684.080138953125 C1894.128784,708.7537229531249 1882.348999,725.5886839531249 1861.834351,737.314452953125 C1837.782593,751.061950953125 1812.759766,762.7828369531248 1786.015015,770.207335953125 C1772.227417,774.034789953125 1758.060181,776.5652469531251 1743.981689,779.247008953125 C1736.157959,780.7374269531251 1728.163696,781.3341059531249 1719.767578,782.3334959531248 z" id="svg_43" class=""/><path fill="#FEFFFA" opacity="1.000000" stroke="none" d="M4148.074219,768.3399049531249 C4137.128418,762.490233953125 4126.249023,757.200744953125 4116.106689,750.7521359531252 C4098.256348,739.4027709531251 4085.460449,723.1748659531249 4074.4653319999998,705.358886953125 C4066.671631,692.730407953125 4062.199951,678.9349369531251 4059.081787,664.569213953125 C4055.000244,645.7648319531249 4061.848877,627.6513059531248 4077.677979,617.308898953125 C4085.2980960000004,612.330199953125 4093.929443,611.5502929531249 4103.07251,612.157287953125 C4123.281982,613.499084953125 4131.911621,627.9737549531251 4138.772461,643.5686039531251 C4145.59082,659.0665889531251 4151.757324,674.939452953125 4162.54248,688.0534059531251 C4172.736328,700.4484249531251 4186.367676,708.2438969531249 4202.066406,712.3944089531251 C4217.160156,716.384826953125 4232.603027,716.303283953125 4247.760742,715.046996953125 C4270.854492,713.1329959531249 4291.981445,705.3330689531249 4308.200195,687.6028439531251 C4316.904785,678.087096953125 4321.84082,667.036010953125 4322.070312,653.9027709531251 C4322.237305,644.316405953125 4321.293945,635.1631469531249 4316.701172,626.4866329531251 C4310.970215,615.659545953125 4301.876953,608.4664919531251 4291.605469,602.628631953125 C4278.370605,595.1062619531249 4263.722656,591.281890953125 4249.152344,587.3230589531249 C4221.109863,579.703704953125 4192.935547,572.515838953125 4165.101074,564.1966549531251 C4144.07373,557.912200953125 4124.009766,548.858825953125 4107.018311,534.6491999531249 C4088.755371,519.376555953125 4075.1733399999994,500.71884195312487 4069.994873,476.853728953125 C4067.222168,464.07678195312496 4066.034424,451.09796095312504 4067.119629,438.146911953125 C4069.68335,407.55709795312487 4082.209229,381.568084953125 4105.566895,361.42507895312497 C4123.946045000001,345.57488995312497 4145.648926,335.8310849531249 4169.154297,330.479857953125 C4181.604004,327.64550795312493 4194.336914,325.48942595312496 4207.054688,324.542449953125 C4223.240723,323.3372499531249 4239.595215,322.68481395312506 4255.777832,323.58331295312496 C4275.951172,324.703338953125 4295.736816,328.806106953125 4314.711914,336.2991329531251 C4340.368164,346.4306339531249 4361.786621,362.2325749531251 4377.543945,384.79296895312496 C4385.549805,396.2549439531249 4390.441895,409.3471369531251 4392.191895,423.7034909531251 C4394.640137,443.7903439531251 4387.65918,459.12905895312497 4370.911133,469.61401395312487 C4363.804688,474.06304895312496 4355.370605,475.23690795312496 4346.549805,473.74978595312496 C4339.816895,472.61474595312507 4333.25,471.21948195312507 4328.696289,466.241088953125 C4323.708984,460.7890019531251 4319.501953,454.53018195312507 4315.539062,448.2541499531251 C4309.10498,438.06356795312513 4303.676758,427.20858795312506 4296.864258,417.293670953125 C4286.732422,402.54797395312494 4273.024414,392.335814953125 4254.724609,390.4686579531249 C4241.303711,389.09930395312495 4227.657715,387.6825559531251 4214.285156,388.6593629531251 C4196.562988,389.9538269531249 4180.001465,395.5666499531251 4166.378906,408.23199495312497 C4157.160156,416.8033449531249 4151.32666,426.7620539531249 4151.116699,439.27532995312504 C4150.869141,454.028411953125 4158.581055,465.0152279531251 4170.093262,473.2628779531251 C4184.405273,483.516570953125 4200.848633,489.012115953125 4217.753418,493.3681029531249 C4241.241211,499.42031895312493 4264.667969,505.710143953125 4288.112793,511.9286189531249 C4308.009277,517.2058719531251 4327.334473,524.0713199531251 4345.73291,533.3436579531249 C4359.57373,540.3188779531251 4372.626953,548.5972599531251 4383.166504,560.1094669531249 C4396.372559,574.5343629531251 4405.08252,591.278045953125 4409.160645,610.6367799531249 C4412.154297,624.849486953125 4412.640137,639.1271969531249 4411.796387,653.378173953125 C4410.977051,667.2161259531249 4407.704102,680.7405399531249 4402.283203,693.6661989531249 C4395.348145,710.2040409531251 4385.810059,725.0987549531251 4372.498047,737.002868953125 C4363.749023,744.826781953125 4353.876465,751.580077953125 4343.85498,757.755126953125 C4325.154785,769.277892953125 4304.24707,775.256591953125 4282.847168,779.210509953125 C4261.799316,783.0993649531251 4240.419922,782.8468019531251 4219.125,782.254210953125 C4194.847168,781.578612953125 4171.170898,777.339843953125 4148.074219,768.3399049531249 z" id="svg_44" class=""/><path fill="#FEFFFA" opacity="1.000000" stroke="none" d="M3986.984863,405.47637895312505 C3991.890381,417.73440595312513 3995.262939,430.00695795312504 3995.935791,442.83984395312496 C3996.568604,454.90679895312496 3997.460938,467.04522695312494 3996.804199,479.07382195312493 C3995.930908,495.0651549531249 3992.455811,510.6559449531251 3986.041992,525.525725953125 C3980.035645,539.449889953125 3971.629883,551.585204953125 3960.75415,562.0991519531249 C3949.069092,573.3960879531251 3935.266602,581.2038879531251 3920.357178,587.3864139531249 C3905.661621,593.480315953125 3890.219482,596.6329649531249 3874.672119,599.1852109531251 C3866.124023,600.5884399531251 3857.361328,601.180724953125 3848.688965,601.2409059531251 C3815.696777,601.4698489531249 3782.70166,601.333190953125 3749,601.333190953125 C3749,603.156798953125 3749,604.903808953125 3749,606.6508179531252 C3749,647.9815669531249 3749.320312,689.316039953125 3748.834961,730.641051953125 C3748.65332,746.090392953125 3745.296875,761.0487669531249 3732.785889,772.0079959531249 C3725.550537,778.345702953125 3717.385254,782.5347289531251 3707.392822,782.3688969531249 C3699.562988,782.238891953125 3691.791748,782.6399539531249 3684.342773,779.1534419531249 C3670.830811,772.829101953125 3663.112305,762.0872799531248 3660.116211,747.880187953125 C3658.811035,741.692199953125 3658.092041,735.2595219531249 3658.085449,728.936950953125 C3657.968506,612.7777709531251 3657.942627,496.618285953125 3658.081787,380.4591059531249 C3658.097168,367.68301395312506 3660.673828,355.176330953125 3669.151123,345.084685953125 C3674.863525,338.2843019531251 3682.859619,334.28689595312494 3691.533203,332.4561009531251 C3697.558105,331.1844479531251 3703.811035,330.44148295312493 3709.965088,330.42188995312495 C3759.628174,330.26370195312506 3809.297607,329.8984529531249 3858.952637,330.548980953125 C3878.556396,330.805785953125 3898.211914,333.202849953125 3916.929932,339.821013953125 C3947.180908,350.51718095312503 3969.977051,369.8232119531249 3983.973877,399.01437395312496 C3984.948486,401.04739395312504 3985.969727,403.058074953125 3986.984863,405.47637895312505 M3753.623535,533.333220953125 C3773.202637,532.999511953125 3792.786621,532.8251649531251 3812.359131,532.265044953125 C3822.19751,531.9835509531249 3832.04541,531.2873539531249 3841.835693,530.265014953125 C3854.901367,528.9006349531251 3867.43457,525.503631953125 3878.656006,518.3451839531249 C3888.202881,512.2553409531251 3895.648682,504.28100595312503 3900.005859,493.66873195312496 C3905.627197,479.9775389531251 3906.344727,465.7926329531251 3903.977539,451.382781953125 C3899.325439,423.05868495312507 3883.859863,408.67648295312506 3857.516357,402.3239439531251 C3840.172852,398.14175395312486 3822.409912,398.32846095312493 3804.799561,397.50866695312493 C3787.509521,396.7037959531249 3770.152832,397.3269039531251 3752.825439,397.3464049531249 C3751.570068,397.34780895312497 3750.314697,397.5373539531249 3749,397.644225953125 C3749,442.014678953125 3749.033691,485.9946899531251 3748.92749,529.9743649531251 C3748.920166,533.031890953125 3750.044922,533.7252809531251 3753.623535,533.333220953125 z" id="svg_45" class=""/><path fill="#FEFFFA" opacity="1.000000" stroke="none" d="M2147,580.333251953125 C2120.858154,580.333251953125 2095.216553,580.333251953125 2068.999756,580.333251953125 C2068.999756,582.3081969531249 2068.999756,584.0731199531251 2068.999756,585.8380429531251 C2068.999756,634.666076953125 2069.215088,683.495605953125 2068.862183,732.321105953125 C2068.762939,746.053466953125 2065.945679,759.533263953125 2055.7989500000003,769.9012449531251 C2047.935547,777.936156953125 2038.3022460000002,782.169738953125 2026.72876,782.4600219531249 C2014.742188,782.7606809531248 2004.044922,780.6672359531249 1994.491577,772.6550289531251 C1986.322144,765.803527953125 1981.90979,757.0883789531249 1980.196289,747.182311953125 C1978.610718,738.016051953125 1978.097656,728.566405953125 1978.086548,719.240417953125 C1977.952759,606.752868953125 1977.894165,494.2648009531249 1978.144409,381.77761795312495 C1978.173096,368.83654795312486 1980.309204,355.9558719531251 1988.990112,345.27918995312507 C1994.644653,338.324523953125 2002.175903,334.3662109531251 2010.631836,332.4686129531251 C2016.631348,331.1222529531251 2022.904907,330.43107595312495 2029.0577389999999,330.42004395312506 C2103.716064,330.28626995312493 2178.375,330.2191469531249 2253.032959,330.443084953125 C2265.813232,330.4814299531249 2276.610352,335.5091859531251 2283.979248,346.7321779531251 C2287.709961,352.41461195312513 2288.471924,358.8414609531251 2288.472412,365.0879819531251 C2288.473145,374.305419953125 2285.828125,382.7485659531251 2278.526611,389.5013729531249 C2271.123535,396.34835795312506 2262.397461,399.2106319531249 2252.851318,399.24029495312493 C2193.524902,399.424712953125 2134.197754,399.33322095312496 2074.8708500000002,399.333251953125 C2073.072021,399.333251953125 2071.273193,399.333251953125 2069.239136,399.333251953125 C2069.239136,437.38442995312494 2069.239136,475.11984295312504 2069.239136,513.333251953125 C2071.086792,513.333251953125 2072.86499,513.333251953125 2074.643066,513.333251953125 C2124.637695,513.333220953125 2174.633789,513.105742953125 2224.625732,513.4760129531251 C2239.054932,513.5829159531249 2252.032471,521.0906979531251 2256.36377,536.1550289531251 C2260.095947,549.1348879531249 2258.191406,561.191100953125 2248.684326,570.843108953125 C2242.342041,577.2821659531251 2233.640869,580.2156679531249 2224.490967,580.2751769531251 C2198.828369,580.442016953125 2173.163818,580.333282953125 2147,580.333251953125 z" id="svg_46" class=""/><path fill="#FEFFFA" opacity="1.000000" stroke="none" d="M3523.691895,781.3199459531252 C3506.404785,784.228881953125 3490.640137,782.911742953125 3478.364746,769.150451953125 C3471.999756,762.0149539531249 3468.019775,753.576049953125 3467.088867,744.051574953125 C3466.31958,736.183227953125 3466.047119,728.238585953125 3466.042969,720.327575953125 C3465.980713,603.3508909531249 3465.841553,486.3737789531251 3466.162842,369.39797995312506 C3466.213867,350.78680395312495 3473.421143,334.33416795312496 3491.562012,326.79264795312497 C3516.145996,316.572494953125 3546.960205,325.41369595312494 3553.909424,356.4710999531251 C3555.21582,362.31008895312493 3555.90918,368.41455095312494 3555.915039,374.3974299531251 C3556.028564,495.03991695312493 3556.108887,615.682738953125 3555.880127,736.3249509531252 C3555.84668,754.095519953125 3548.57251,768.7515259531251 3532.622314,778.022277953125 C3530.029053,779.529479953125 3526.968506,780.232909953125 3523.691895,781.3199459531252 z" id="svg_47" class=""/><path fill="#FEFFFA" opacity="1.000000" stroke="none" d="M3181,649.333251953125 C3153.360352,649.333251953125 3126.220703,649.2858279531251 3099.081299,649.356994953125 C3088.493408,649.384765953125 3078.980225,646.2575069531249 3070.871582,639.578551953125 C3064.964844,634.7133179531252 3061.185547,627.9245609531249 3060.298828,620.532897953125 C3058.788818,607.9393919531249 3059.875732,595.6050719531249 3070.466797,586.382873953125 C3077.806641,579.9916689531251 3086.512207,576.4969789531251 3096.079102,576.434234953125 C3133.706543,576.1874389531249 3171.346436,575.825744953125 3208.961182,576.5594479531251 C3226.281006,576.8973079531249 3241.434814,585.4790039531249 3244.673828,605.1748959531251 C3248.17334,626.454467953125 3238.551758,645.067199953125 3215.167969,648.1412959531249 C3204.084473,649.5983279531251 3192.731201,649.0003049531251 3181,649.333251953125 z" id="svg_48" class=""/><path fill="#78C5F1" opacity="1.000000" stroke="none" d="M492.282959,929.8273929531251 C477.732391,924.1828609531249 462.831268,919.2972409531249 448.690613,912.7653199531251 C379.260223,880.6937259531251 324.668701,831.3200679531251 282.114807,768.2042849531249 C243.53094499999997,710.976928953125 217.97148100000004,647.9851689531251 199.977707,581.6875919531249 C185.949234,529.999969953125 177.02182,477.39495895312507 171.767166,424.1246339531249 C167.593658,381.81445295312506 165.588562,339.4167019531251 166.071014,296.904540953125 C166.170319,288.154403953125 168.489532,285.913497953125 177.493332,285.547683953125 C228.855499,283.460906953125 279.019836,274.41117895312505 328.037231,259.116759953125 C383.845032,241.70353695312497 436.135254,216.760436953125 485.042542,184.720855953125 C486.96109,183.464011953125 489.16226200000006,182.63853495312492 491.59332300000005,182.10060095312497 C491.9804690000001,221.335006953125 492.00601200000006,260.0808559531249 491.573029,298.9333499531249 C481.2323610000001,300.15928695312505 471.1210940000001,300.302627953125 461.506042,302.55976895312506 C407.944183,315.133407953125 369.310455,364.0019839531251 368.946716,418.929656953125 C368.865112,431.2540889531251 368.888641,443.5792849531249 368.410828,455.980315953125 C362.627319,456.09805295312503 357.291168,456.00189195312487 351.967346,456.214324953125 C344.490479,456.51266495312507 338.659363,460.070739953125 335.832672,466.89825395312505 C334.112854,471.05224595312507 333.437653,475.9140019531251 333.428894,480.4599919531249 C333.287598,553.5994259531249 333.328949,626.7392579531252 333.330627,699.878966953125 C333.330658,701.211608953125 333.286469,702.548644953125 333.374451,703.8762209531251 C334.233917,716.8452149531249 342.072479,724.246032953125 355.066193,724.2691039531251 C374.725555,724.3040769531249 394.38504,724.256408953125 414.044434,724.284545953125 C440.031067,724.321776953125 466.01767,724.3983769531251 492.00351,724.9188229531251 C492.002258,791.3692629531251 491.9991150000001,857.358764953125 492.01312299999995,923.3483279531251 C492.01358000000005,925.5079959531249 492.18905599999994,927.6677249531249 492.282959,929.8273929531251 z" id="svg_165" class=""/><path fill="#60ABD2" opacity="1.000000" stroke="none" d="M492.66613800000005,929.8105469531251 C492.18905599999994,927.6677249531249 492.01358000000005,925.5079959531249 492.01312299999995,923.3483279531251 C491.9991150000001,857.358764953125 492.002258,791.3692629531251 492.46691899999996,724.8474729531249 C538.091125,724.302367953125 583.251099,724.2956539531251 628.411133,724.2731319531249 C643.125366,724.265746953125 650.92804,716.4668579531249 650.930786,701.765380953125 C650.939941,652.9390869531248 650.934631,604.1127319531251 650.93457,555.286437953125 C650.934509,529.290191953125 650.960327,503.29388395312503 650.92218,477.29769895312506 C650.902893,464.150664953125 642.950378,456.272338953125 629.730957,456.128234953125 C625.069519,456.07745395312486 620.408691,455.97891195312513 615.759888,455.46609495312487 C615.58667,441.5632019531249 615.95166,428.06216395312504 615.115723,414.63586395312495 C612.273254,368.98480195312504 590.232788,335.24412495312504 550.481567,313.03991695312493 C532.383423,302.9306339531249 512.664246,298.8404999531249 492.031555,298.82670595312493 C492.00601200000006,260.0808559531249 491.9804690000001,221.335006953125 491.9392700000001,182.14656095312512 C494.480774,182.72888195312498 497.29635600000006,183.35845195312504 499.557495,184.83632695312508 C561.194702,225.122603953125 627.721924,254.03715495312508 699.457825,270.7795869531251 C729.469421,277.7839809531249 759.842102,282.5873109531251 790.636353,284.4776459531249 C796.614685,284.84461995312495 802.598511,285.1241759531249 808.5755,285.51072695312496 C815.267212,285.9434809531249 818.022949,288.94016995312495 818.102783,295.693755953125 C818.697876,346.03744495312503 815.904419,396.209685953125 809.846069,446.1734009531251 C801.994385,510.927764953125 788.726685,574.504760953125 766.926636,636.1154789531251 C745.151917,697.654540953125 715.767578,755.0589599531249 673.847534,805.527587953125 C625.875793,863.2819819531251 566.520081,904.6745609531249 495.462616,929.146178953125 C494.67703200000005,929.416686953125 493.85458399999993,929.580199953125 492.66613800000005,929.8105469531251 z" id="svg_166" class=""/><path fill="#F2D53D" opacity="1.000000" stroke="none" d="M615.747559,455.9021609531251 C620.408691,455.97891195312513 625.069519,456.07745395312486 629.730957,456.128234953125 C642.950378,456.272338953125 650.902893,464.150664953125 650.92218,477.29769895312506 C650.960327,503.29388395312503 650.934509,529.290191953125 650.93457,555.286437953125 C650.934631,604.1127319531251 650.939941,652.9390869531248 650.930786,701.765380953125 C650.92804,716.4668579531249 643.125366,724.265746953125 628.411133,724.2731319531249 C583.251099,724.2956539531251 538.091125,724.302367953125 492.467712,724.386596953125 C466.01767,724.3983769531251 440.031067,724.321776953125 414.044434,724.284545953125 C394.38504,724.256408953125 374.725555,724.3040769531249 355.066193,724.2691039531251 C342.072479,724.246032953125 334.233917,716.8452149531249 333.374451,703.8762209531251 C333.286469,702.548644953125 333.330658,701.211608953125 333.330627,699.878966953125 C333.328949,626.7392579531252 333.287598,553.5994259531249 333.428894,480.4599919531249 C333.437653,475.9140019531251 334.112854,471.05224595312507 335.832672,466.89825395312505 C338.659363,460.070739953125 344.490479,456.51266495312507 351.967346,456.214324953125 C357.291168,456.00189195312487 362.627319,456.09805295312503 368.880371,456.09161395312503 C382.57077,456.05108595312504 395.338684,455.97543295312494 408.559509,455.9812009531249 C421.772858,456.08218395312497 434.533539,456.148101953125 447.293854,456.1090699531251 C462.200256,456.063476953125 477.10638399999993,455.926330953125 492.46691899999996,455.93972795312493 C520.643677,456.0061039531249 548.36615,455.961669953125 576.541077,456.0159299531251 C589.91156,456.0438229531251 602.829529,455.9729919531251 615.747559,455.9021609531251 M502.86871300000007,523.7637939531251 C496.30780000000004,523.624450953125 489.53253199999995,522.3558959531251 483.22534199999996,523.553130953125 C462.574188,527.4730839531251 447.412598,545.577788953125 448.259613,567.6466059531249 C448.908844,584.561889953125 457.19751,597.6757509531249 472.86953700000004,605.2198489531252 C476.0955200000001,606.7728269531249 477.110321,608.661010953125 477.07458500000007,612.111815953125 C476.91085799999996,627.9233399531249 477.142792,643.739562953125 476.911743,659.5493769531249 C476.847748,663.9268189531249 477.754639,665.8403319531249 482.60800199999994,665.5008549531249 C488.9024959999999,665.060485953125 495.268005,665.1105959531251 501.570557,665.4892579531252 C506.0248409999999,665.7568969531249 507.215149,664.306640953125 507.14416499999993,659.904845953125 C506.883881,643.7629399531252 506.962219,627.613280953125 507.15625,611.4695439531251 C507.17703200000005,609.738585953125 508.34375,607.130431953125 509.72900400000003,606.444884953125 C523.426453,599.6661069531251 531.959229,589.1318049531251 535.304443,574.0903629531249 C540.020813,552.8837279531249 525.009583,528.874450953125 502.86871300000007,523.7637939531251 M611.598206,604.246764953125 C619.828918,603.295470953125 624.093567,599.137847953125 624.10968,591.5567629531249 C624.175232,560.731902953125 624.200256,529.906402953125 624.022339,499.08242795312503 C624.007202,496.45782495312505 622.906006,493.480681953125 621.396118,491.29949995312495 C618.410522,486.986449953125 612.899109,485.65234395312496 608.025391,487.3249509531249 C602.704285,489.15112295312497 599.759521,493.280395953125 599.747009,499.623137953125 C599.686951,530.1147769531249 599.675293,560.6066899531249 599.747498,591.0982969531251 C599.765625,598.7386169531251 602.75769,602.0777589531249 611.598206,604.246764953125 M599.704773,661.833251953125 C599.713318,668.329406953125 599.611389,674.8281249531251 599.75946,681.321105953125 C599.930237,688.8094479531251 605.425354,694.3220219531249 612.241394,694.1002809531251 C618.95459,693.8818359531251 624.073608,688.4625849531249 624.11792,681.2282719531249 C624.199524,667.9031369531249 624.195862,654.576781953125 624.117615,641.2515869531248 C624.072754,633.599792953125 619.007751,628.3753049531251 611.870239,628.347045953125 C604.945557,628.319518953125 599.951111,633.345458953125 599.764038,640.8458859531252 C599.598022,647.504699953125 599.713318,654.170531953125 599.704773,661.833251953125 z" id="svg_377" class=""/><path fill="#FEFEFF" opacity="1.000000" stroke="none" d="M615.759888,455.46606395312506 C602.829529,455.9729919531251 589.91156,456.0438229531251 576.540527,455.579833953125 C575.751709,439.2663269531249 576.681152,423.3377079531251 574.832458,407.738280953125 C570.109619,367.88577295312507 532.188477,336.721526953125 491.56631500000003,338.36804195312493 C479.965332,338.052230953125 469.151794,339.95619195312497 459.047363,344.54360995312504 C430.165833,357.6558529531251 412.428284,379.618285953125 409.094971,411.51370195312506 C407.561951,426.18328895312493 408.363617,441.0968629531251 408.106628,455.89977995312506 C395.338684,455.97543295312494 382.57077,456.05108595312504 369.333282,456.015441953125 C368.888641,443.5792849531249 368.865112,431.2540889531251 368.946716,418.929656953125 C369.310455,364.0019839531251 407.944183,315.133407953125 461.506042,302.55976895312506 C471.1210940000001,300.302627953125 481.2323610000001,300.15928695312505 491.573029,298.9333499531249 C512.664246,298.8404999531249 532.383423,302.9306339531249 550.481567,313.03991695312493 C590.232788,335.24412495312504 612.273254,368.98480195312504 615.115723,414.63586395312495 C615.95166,428.06216395312504 615.58667,441.5632019531249 615.759888,455.46606395312506 z" id="svg_378" class=""/><path fill="#61ABD2" opacity="1.000000" stroke="none" d="M492.0258180000001,338.42008995312494 C532.188477,336.721526953125 570.109619,367.88577295312507 574.832458,407.738280953125 C576.681152,423.3377079531251 575.751709,439.2663269531249 576.088074,455.48113995312497 C548.36615,455.961669953125 520.643677,456.0061039531249 492.46106,455.50836195312513 C492.00924699999996,416.11746195312503 492.017517,377.268767953125 492.0258180000001,338.42008995312494 z" id="svg_505" class=""/><path fill="#79C5F0" opacity="1.000000" stroke="none" d="M491.56631500000003,338.36804195312493 C492.017517,377.268767953125 492.00924699999996,416.11746195312503 492.00677500000006,455.3975219531251 C477.10638399999993,455.926330953125 462.200256,456.063476953125 447.293854,456.1090699531251 C434.533539,456.148101953125 421.772858,456.08218395312497 408.559509,455.9812009531249 C408.363617,441.0968629531251 407.561951,426.18328895312493 409.094971,411.51370195312506 C412.428284,379.618285953125 430.165833,357.6558529531251 459.047363,344.54360995312504 C469.151794,339.95619195312497 479.965332,338.052230953125 491.56631500000003,338.36804195312493 z" id="svg_506" class=""/><path fill="#CE9234" opacity="1.000000" stroke="none" d="M503.25421099999994,523.9131469531251 C525.009583,528.874450953125 540.020813,552.8837279531249 535.304443,574.0903629531249 C531.959229,589.1318049531251 523.426453,599.6661069531251 509.72900400000003,606.444884953125 C508.34375,607.130431953125 507.17703200000005,609.738585953125 507.15625,611.4695439531251 C506.962219,627.613280953125 506.883881,643.7629399531252 507.14416499999993,659.904845953125 C507.215149,664.306640953125 506.0248409999999,665.7568969531249 501.570557,665.4892579531252 C495.268005,665.1105959531251 488.9024959999999,665.060485953125 482.60800199999994,665.5008549531249 C477.754639,665.8403319531249 476.847748,663.9268189531249 476.911743,659.5493769531249 C477.142792,643.739562953125 476.91085799999996,627.9233399531249 477.07458500000007,612.111815953125 C477.110321,608.661010953125 476.0955200000001,606.7728269531249 472.86953700000004,605.2198489531252 C457.19751,597.6757509531249 448.908844,584.561889953125 448.259613,567.6466059531249 C447.412598,545.577788953125 462.574188,527.4730839531251 483.22534199999996,523.553130953125 C489.53253199999995,522.3558959531251 496.30780000000004,523.624450953125 503.25421099999994,523.9131469531251 z" id="svg_507" class=""/><path fill="#FFFFFE" opacity="1.000000" stroke="none" d="M611.197388,604.231994953125 C602.75769,602.0777589531249 599.765625,598.7386169531251 599.747498,591.0982969531251 C599.675293,560.6066899531249 599.686951,530.1147769531249 599.747009,499.623137953125 C599.759521,493.280395953125 602.704285,489.15112295312497 608.025391,487.3249509531249 C612.899109,485.65234395312496 618.410522,486.986449953125 621.396118,491.29949995312495 C622.906006,493.480681953125 624.007202,496.45782495312505 624.022339,499.08242795312503 C624.200256,529.906402953125 624.175232,560.731902953125 624.10968,591.5567629531249 C624.093567,599.137847953125 619.828918,603.295470953125 611.197388,604.231994953125 z" id="svg_508" class=""/><path fill="#FFFFFE" opacity="1.000000" stroke="none" d="M599.70459,656.333251953125 C599.713318,649.170531953125 599.598022,642.504699953125 599.764038,635.8458859531252 C599.951111,628.345458953125 604.945557,623.319518953125 611.870239,623.347045953125 C619.007751,623.3753049531251 624.072754,628.599792953125 624.117615,636.2515869531248 C624.195862,649.576781953125 624.199524,662.9031369531249 624.11792,676.2282719531249 C624.073608,683.4625849531249 618.95459,688.8818359531251 612.241394,689.1002809531251 C605.425354,689.3220219531249 599.930237,683.8094479531251 599.75946,676.321105953125 C599.611389,669.8281249531251 599.713318,663.329406953125 599.70459,656.333251953125 z" id="svg_509" class=""/></g></svg>