<svg xmlns="http://www.w3.org/2000/svg" xmlns:xlink="http://www.w3.org/1999/xlink" version="1.1" width="1002.9999997019768" enable-background="new 0 0 4500 921" xml:space="preserve" height="1003"><rect id="backgroundrect" width="100%" height="100%" x="0" y="0" fill="none" stroke="none" class="" style=""/>




















































































































































































































































































































































































































































































































































































































<g class="currentLayer" style=""><title>Layer 1</title><path fill="#172740" opacity="1.000000" stroke="none" d="M465.20208769921874,59.04347744503784 C470.95074469921883,55.095111445037844 476.3410036992186,50.42532744503785 482.5249636992187,47.35306644503784 C494.31164569921884,41.497286445037844 505.45977769921865,44.069088445037835 515.5963746992188,51.997190445037845 C518.4157106992188,54.20225444503784 521.2615046992187,56.373479445037844 524.4513546992189,59.13490644503784 C527.7707516992186,61.593448445037836 530.7339476992188,63.477321445037845 533.9370726992188,65.51574244503784 C537.6743166992187,68.12084944503783 541.1716916992186,70.57141044503784 544.8697506992189,73.30565244503785 C558.2809446992187,81.39849044503785 571.4913936992189,89.20764844503785 585.0850216992187,96.98725044503783 C593.3300166992187,101.18672944503783 601.0997316992189,105.60082244503783 609.0873416992188,109.57727044503784 C614.0977786992189,112.07157844503786 619.4356076992187,113.90828644503785 624.8502806992187,116.32667444503784 C631.6791376992187,119.07527844503784 638.2843016992188,121.53726944503785 644.8782956992186,124.37137544503784 C651.3534546992187,127.17957244503785 657.8397216992189,129.61564544503784 664.7629396992188,132.21582744503786 C664.7629396992188,128.95503144503783 664.7629396992188,126.49764944503784 665.2348026992188,124.01556344503786 C672.0988766992186,124.00318144503785 678.4911496992188,124.01550244503784 684.8942256992186,124.49666544503785 C684.9050906992188,129.57368444503783 684.9050906992188,134.18184644503785 684.9050906992188,138.93181544503784 C691.8416136992187,140.71617844503783 698.4094236992187,142.40570044503784 705.2324826992187,144.05297844503784 C705.6524656992187,144.06208744503783 705.8171386992187,144.11343344503786 706.1796876992189,144.46337844503785 C712.3281856992187,146.21103644503785 718.2787476992189,147.66010244503784 724.5158686992188,149.17893944503783 C724.6448976992187,147.26367144503786 724.7546996992187,145.63360544503786 724.8733516992188,144.04038144503784 C724.8821406992188,144.07722444503784 724.8168336992187,144.11556244503782 725.2825926992186,144.05674744503784 C732.1275026992189,144.00949844503782 738.5066526992186,144.02107144503785 744.8950806992189,144.48530544503785 C744.9043576992187,147.56242344503784 744.9043576992187,150.18687344503786 744.9043576992187,153.40226744503784 C751.6993406992187,154.31296444503784 758.3350216992187,155.20231544503784 765.3461306992187,156.22007744503784 C771.1746216992187,156.97853844503783 776.6276856992188,157.60857344503785 782.4073486992188,158.44433544503784 C790.1635126992187,159.13355244503782 797.5930786992187,159.61705744503786 805.4338986992188,160.07767444503784 C812.1594236992187,160.39388944503784 818.4736326992188,160.73300844503785 825.2564696992188,161.12203944503784 C832.1154786992188,161.14167744503783 838.5059206992187,161.11141144503785 845.3458246992186,161.04122144503785 C848.8195796992186,161.01682244503786 851.8438716992187,161.03234044503785 855.3330686992188,161.06010344503784 C865.4959106992187,162.08527344503784 875.1938476992186,163.09821244503786 884.8917236992188,164.11114444503784 C884.8917236992188,164.11114444503784 884.7927246992188,164.10414044503784 884.8438106992189,164.47894244503783 C885.0554196992189,166.54940744503784 884.7796016992188,168.44792144503785 885.4562376992187,169.90371644503784 C887.7211306992187,174.77651944503785 890.3265376992188,179.49105744503785 892.8014526992188,184.26621944503785 C893.1635126992187,190.57536244503785 893.5255736992187,196.88449044503784 893.8644406992189,204.12860044503785 C894.1608886992187,211.46990944503784 894.4805906992187,217.87628144503788 894.8003536992187,224.28263844503783 C894.8129886992187,230.59054544503783 894.8256226992189,236.89845244503783 894.8343506992187,244.14306544503785 C894.8403926992187,251.38284244503785 894.8504026992186,257.6859434450379 894.8604126992186,263.98902844503783 C894.8826296992188,270.32667444503784 894.9049076992187,276.66433644503786 894.7822876992186,283.9128714450378 C894.3709716992189,293.23809744503785 894.1045536992187,301.6524654450378 893.8380736992187,310.06680244503787 C893.8500976992186,312.2161554450378 893.8621216992187,314.36550844503785 893.6084596992187,317.31310944503787 C892.8432006992189,327.08685244503783 892.3436276992188,336.06234644503786 891.8440546992188,345.03787144503787 C891.5520626992188,351.01211544503786 891.2601316992186,356.98638844503785 890.6793826992189,363.73718244503783 C889.8566896992188,371.12307644503784 889.3228756992189,377.73245144503784 888.7890016992187,384.34182644503784 C888.1383056992188,390.11773644503785 887.4876706992186,395.89364544503786 886.5798946992186,402.41702244503784 C885.7489016992188,407.94784544503784 885.0757446992188,412.7223504450378 884.6455686992188,417.51864544503786 C884.4496456992188,419.7034604450378 884.7340086992187,421.93136544503784 884.8004756992186,424.13970944503785 C884.8005366992188,424.13970944503785 884.7932736992188,424.04177844503783 884.4678346992187,424.15045144503785 C883.0416256992189,430.85763544503783 881.9407956992186,437.45617644503784 880.8511966992187,444.39819244503786 C879.8626096992189,451.12701344503785 878.8626706992186,457.51238944503785 877.6532596992188,464.23644944503786 C876.2494506992189,470.90292344503786 875.0552366992188,477.2307424450378 873.7567746992188,484.11071744503784 C877.6513056992187,484.11071744503784 881.2717286992188,484.11071744503784 884.8921506992187,484.11071744503784 C884.8921506992187,484.11071744503784 884.7933346992188,484.1041564450379 884.8463746992188,484.52444444503783 C884.8615116992187,491.3420404450378 884.8236086992188,497.7393484450379 884.7857056992189,504.1366574450378 C884.7857056992189,504.1366574450378 884.7932126992187,504.03802444503776 884.3746946992187,504.08941644503784 C879.3062136992189,504.14083844503784 874.6561886992188,504.14083844503784 869.3956906992189,504.14083844503784 C868.1771236992188,510.89141844503786 866.9807126992187,517.5190424450378 865.8027956992187,524.1015014450379 C865.8213496992189,524.0563044450378 865.9173586992188,524.0779104450378 865.6228636992187,523.9340814450379 C865.1740726992189,524.1875304450379 865.0197146992186,524.5847774450378 864.8156126992187,525.4015494450379 C864.6804196992189,526.0894464450378 864.5949706992187,526.3578184450378 864.3884886992187,526.9332574450378 C862.7957156992188,533.1643974450378 861.3238526992186,539.0884704450378 859.8551636992188,545.4191584450379 C858.1792606992187,551.8846434450378 856.5001216992187,557.9435424450378 854.6512446992188,564.3370354450378 C852.5899656992187,571.1803584450379 850.6984256992187,577.6890254450378 848.8781126992187,584.5291134450379 C848.4489746992188,586.3753654450378 847.9666136992187,587.8963004450378 847.4456786992187,589.4038694450378 C843.5521236992188,600.6712034450378 839.6508176992188,611.9358514450379 835.4349976992189,623.3464354450379 C832.6867066992188,630.3808584450378 830.2554316992187,637.2702024450379 827.8236086992188,644.1110834450378 C827.8230586992188,644.0624994450378 827.9200436992187,644.0587764450379 827.5896606992187,643.9840694450378 C827.1102296992187,644.3232414450379 826.9612426992187,644.7371824450379 826.8776246992188,645.5255734450378 C826.1226806992188,647.3557124450379 825.3023066992187,648.8114004450379 824.3490596992187,650.5664054450378 C822.4307246992189,655.2400504450378 820.6453246992187,659.6145014450378 818.8208616992188,664.3599844450379 C815.8155516992188,671.1130974450379 812.8493046992189,677.4951774450378 809.5790406992187,684.0708614450378 C807.6728516992189,687.9055784450378 806.0706176992187,691.5466914450378 804.2884516992187,695.4528804450379 C802.7018436992189,698.4295034450379 801.2951656992186,701.1411124450378 799.5780026992188,704.0305784450378 C795.7806396992187,711.0196524450379 792.2937006992188,717.8307494450379 788.6737056992188,724.9228514450378 C787.2880856992188,727.1754144450379 786.0355836992187,729.1468504450378 784.4458616992188,731.1768184450378 C781.6809086992189,735.5275264450379 779.2531126992187,739.8198234450379 776.6978146992187,744.4281004450379 C767.6318966992187,757.5588984450378 758.6936036992188,770.3737174450379 749.4274286992186,783.2537224450379 C747.5675656992189,785.6008294450378 746.0356446992187,787.8828124450379 744.2699586992187,790.3812864450379 C740.6286006992186,794.7617794450379 737.2210696992188,798.9257804450378 733.4871216992187,803.1751704450378 C730.2806396992187,806.8938594450378 727.4004516992186,810.5273434450378 724.2885746992188,814.3817744450379 C721.3427126992187,817.6406244450378 718.6286616992188,820.6785884450378 715.5471796992188,823.6973264450378 C711.6416016992189,827.4980464450379 708.1035156992189,831.3180534450379 704.3345336992188,835.3525384450378 C701.3722536992186,838.2904654450379 698.6408076992188,841.0139764450379 695.5449826992187,843.7413934450378 C691.6293946992187,847.2119744450379 688.0782466992187,850.6786494450379 684.3035276992186,854.3671874450379 C680.6998286992189,857.6021114450378 677.3197016992187,860.6153564450378 673.5713496992189,863.4763784450379 C670.2940066992187,865.9356684450379 667.3850096992187,868.5472404450378 664.2758176992188,871.4077754450378 C658.6923826992188,875.6618644450378 653.3090816992187,879.6668694450378 647.5363156992189,883.5815424450378 C646.2580566992187,884.3803704450379 645.3691406992189,885.2695914450378 644.2686766992188,886.4122314450378 C637.8371586992189,890.7943724450379 631.6171266992187,894.9230344450378 625.0088496992189,899.0164794450378 C622.0538936992189,900.6555784450378 619.4873046992188,902.3300164450378 616.6193236992187,904.1926264450378 C612.6781616992189,906.6026604450378 609.0383906992188,908.8244014450379 605.0005496992187,911.0342404450379 C598.4596556992187,914.1878044450378 592.2684326992189,917.2661124450378 586.2300416992189,920.6196894450378 C585.3952026992188,921.0833124450378 585.3166506992188,922.9087524450379 584.4496456992188,924.1259764450378 C582.2528076992189,924.1741324450378 580.2641596992189,923.6723624450378 578.7773436992188,924.3210444450378 C573.4233396992188,926.6566764450379 568.2385256992188,929.3803094450378 562.6741336992186,932.1588744450379 C556.4647826992186,934.6161494450379 550.5712276992188,936.8719474450378 544.3473506992186,939.2584224450378 C540.3814086992188,940.8938594450378 536.7456666992189,942.3985594450378 532.7887576992189,944.1010734450379 C530.1049806992187,945.2133174450379 527.7424316992187,946.1276854450379 524.9550166992187,946.9837644450379 C517.5654606992189,949.0965574450379 510.60086069921863,951.2675774450379 504.5375366992189,953.1575924450378 C504.6510926992187,955.4868154450378 504.7384946992188,957.2789304450379 504.82586669921875,959.0710444450378 C498.4714656992187,959.0710444450378 492.11706569921876,959.0710444450378 485.2579346992188,958.6501464450379 C484.7532046992187,956.5825194450379 484.7532046992187,954.9358514450379 484.7532046992187,952.8214104450378 C478.06771869921886,950.8888544450379 471.4579166992187,948.9781484450378 464.60778769921876,946.7925414450378 C461.7822876992186,945.6613154450379 459.19717369921864,944.8050534450379 456.43334969921875,943.6627194450379 C452.4614566992186,941.9494624450379 448.66827369921884,940.5222164450379 444.4891056992187,939.1323844450378 C437.7360536992187,936.4885244450378 431.3690186992187,933.8073114450378 424.79528769921876,930.8301384450378 C418.0287476992187,928.2489004450379 412.49670369921887,922.7910154450378 404.7601926992188,923.7619624450379 C404.79223669921885,922.6315914450379 405.1170346992187,921.3015744450379 404.8305356992187,921.1535024450378 C398.1799006992187,917.7133784450378 391.4629516992188,914.4014884450379 384.4434206992187,910.9384764450378 C380.3619076992188,908.5572504450379 376.5953066992188,906.3034664450379 372.8009946992188,903.7015374450378 C370.08770769921875,901.9215694450378 367.4021296992187,900.4898674450378 364.40353369921877,898.9389644450379 C357.95562769921867,894.5400384450378 351.82073969921885,890.2602534450378 345.5497736992188,885.6384274450378 C343.92871069921875,884.4598994450379 342.44375569921885,883.6235344450379 340.71478269921863,882.6508784450378 C335.5509946992188,878.6743154450378 330.63119469921867,874.8341064450378 325.6432496992188,870.6694334450378 C322.6309206992187,868.1588134450378 319.6867976992187,865.9725944450379 316.53845169921874,863.5394284450379 C312.6313476992186,860.2525024450379 308.92840569921873,857.2125854450378 305.3133236992187,853.8010244450378 C301.5021366992187,850.1744384450378 297.6030576992189,846.9193724450379 293.4533686992188,843.4855954450378 C290.53173869921875,840.5921014450379 287.8607486992187,837.8773184450379 285.22549469921887,834.7932124450379 C281.4266666992187,830.6364134450379 277.59213269921884,826.8491204450379 273.4382936992188,822.9548334450378 C270.5002436992188,819.9594724450378 267.88151569921865,817.0709834450379 265.4040526992187,813.8134764450378 C262.6183466992188,810.2420654450378 259.6913906992188,807.0397944450378 256.5583186992187,803.5939934450379 C252.64810169921884,798.9589834450378 248.9440006992188,794.5675044450378 245.36944569921866,789.8082274450378 C243.92062369921882,787.5723264450378 242.34226969921883,785.7041624450378 240.54853869921862,783.5958244450378 C237.75512669921864,779.9447624450379 235.2545166992188,776.4716184450378 232.57650769921884,773.1411734450378 C230.0862426992187,770.0442504450378 227.40696669921863,767.0992424450378 224.80987569921876,763.7210684450379 C220.86102269921867,756.9368894450379 216.91322369921863,750.5189204450378 213.1062006992188,743.7453604450378 C210.4775086992188,739.0120234450378 207.70803869921883,734.6342764450378 204.7656856992187,729.9522704450378 C203.37475569921867,727.7959594450379 202.1566776992188,725.9439084450379 201.06991569921865,723.7327264450379 C197.4485016992187,716.6659544450379 193.6957546992187,709.9582514450378 189.7542416992187,702.9408564450379 C188.09506269921872,699.8068844450379 186.62466469921878,696.9826654450378 185.16740369921877,693.7717284450379 C183.4381866992187,690.0139154450378 181.6958466992187,686.6428824450378 179.76258869921867,682.9535514450379 C176.66728169921885,676.5253904450378 173.7628936992187,670.4155264450378 170.9502566992187,663.9174804450379 C169.0671076992187,658.8668814450378 167.0921936992188,654.2042844450378 164.9325556992187,649.2043454450378 C164.10150169921872,647.2594604450378 163.45515469921884,645.6520994450378 162.72711169921877,643.6890864450378 C160.03030369921885,636.8681024450378 157.41520669921874,630.4026484450378 154.5654906992188,623.6514274450378 C149.84127769921884,610.3571774450378 145.35168469921882,597.3486934450378 140.97378569921875,583.9315794450379 C138.98422969921876,576.9410394450379 136.8829806992187,570.3591304450379 134.75444769921864,563.3913564450378 C133.08254969921882,556.6688224450378 131.43794269921864,550.3322134450378 129.76847069921882,543.6050414450378 C128.18404369921882,537.3011474450378 126.6244736992187,531.3879084450379 124.95498669921881,525.1268914450379 C124.83316069921875,524.5362844450378 124.82125869921879,524.2934264450378 124.78785669921876,523.6552734450379 C123.1043476992188,516.7724914450378 121.44232169921884,510.2850334450379 119.74332469921865,503.3928824450379 C118.4277496992188,496.7425834450378 117.14914669921882,490.4969784450378 115.93530269921871,483.81860344503787 C114.67427069921882,476.3820794450378 113.34847269921875,469.3782644450378 111.91508469921882,461.9356074450378 C110.8296736992188,455.75201344503785 109.85185269921885,450.00723244503786 108.9472426992188,443.81494044503785 C108.2135846992187,437.28744444503786 107.4417956992188,431.20220944503785 106.52821369921867,425.13836644503783 C106.46063269921865,424.6897274450378 105.37300869921864,424.39477444503785 104.75959769921883,424.02838044503784 C104.75960569921881,424.02838044503784 104.85979469921881,424.03652944503784 104.80790669921885,423.66332944503785 C104.18591269921876,415.3452754450378 103.61582169921871,407.40042044503787 103.04572269921869,399.45553544503787 C102.62779269921884,395.25628644503786 102.20986969921887,391.0570064450378 101.78094469921871,385.99676444503785 C101.09967769921877,377.50698844503785 100.4294126992188,369.87820344503785 99.75914769921883,362.2493894450378 C99.11144969921884,356.51611244503783 98.46375269921873,350.78280544503787 97.8953706992188,344.16827344503787 C97.58702869921876,336.88711544503786 97.19937869921887,330.48718244503783 96.81173669921873,324.08724944503786 C96.45447569921885,317.72991944503786 96.09721369921886,311.37255844503784 95.83395369921868,304.11218244503783 C95.90502169921865,302.05126944503786 95.88404869921874,300.8933714450378 95.85886369921877,299.73553444503784 C95.61132769921869,288.35453744503786 95.36310569921875,276.97355644503784 95.11506669921869,265.59255944503786 C95.02564269921868,265.38145444503783 94.93621069921869,265.17033344503784 94.94461069921886,264.1416774450378 C94.97999569921876,256.83785944503785 94.91755669921872,250.35156244503787 94.85511769921868,243.8652794450378 C94.8511046992187,243.63493344503786 94.84709969921869,243.4045864450378 94.86917069921878,242.50033544503788 C95.2020566992187,229.25097644503785 95.50886569921886,216.6755674450378 95.81567369921868,204.10014344503784 C96.12885269921867,198.32270744503785 96.44203169921866,192.54527244503785 97.10140269921885,186.03848244503783 C98.93626369921867,181.32899444503784 99.78192169921886,176.91148344503785 102.10374469921885,173.49807644503784 C104.2093126992188,170.40257244503783 105.49671169921885,167.63565044503784 104.86706569921876,164.00539344503784 C104.86706569921876,164.00539344503784 104.85924569921872,164.10457544503782 105.25629469921887,164.05281044503784 C107.78797869921868,164.03990144503786 110.33966869921869,164.86125944503783 111.9859616992187,163.98384044503786 C119.62460369921882,159.91268844503784 127.76833369921883,161.21965744503785 136.23904369921866,161.03683444503784 C139.38134769921885,161.04313644503785 142.0738216992188,161.06227044503783 145.23571769921864,161.13661944503784 C152.09159869921882,161.15222144503784 158.47810369921876,161.11260944503783 165.3292236992188,161.04152644503785 C172.08523569921863,160.70524544503786 178.37661769921874,160.40043544503783 185.1341096992187,160.17619244503783 C192.93337969921868,159.57662944503784 200.26650969921866,158.89649944503785 208.04815669921868,158.10849744503784 C213.90327469921885,157.36227344503783 219.30987569921876,156.72392244503783 225.15420569921866,156.14273744503782 C231.9156796992188,155.25776644503784 238.2393946992188,154.31562044503784 244.76570169921865,153.34329944503784 C244.76570169921865,149.94638044503785 244.76570169921865,146.98970744503782 245.2374576992188,144.01161144503783 C252.08464069921865,144.03173044503785 258.46005269921875,144.07325744503783 264.8027956992187,144.09564144503784 C264.7701416992188,144.07649144503785 264.7881466992187,144.00294444503783 264.83145169921863,144.42874144503784 C264.96382169921867,146.23282544503786 265.05290269921875,147.61110644503785 265.18145769921875,149.59999044503786 C271.7511286992187,147.66204044503786 277.7600096992187,145.88951844503782 283.9636836992188,144.04945344503784 C284.1584776992188,143.98190244503786 284.5499576992188,144.11138844503785 284.9662476992187,144.14591944503786 C291.98220869921875,142.12839444503783 298.58184769921877,140.07633144503785 305.5599976992187,137.98586944503785 C312.2067866992188,135.99268244503784 318.4750366992189,134.03788744503782 325.1236576992187,132.04231244503785 C329.3708186992187,130.63431544503783 333.2938846992188,129.40458644503784 337.08505269921875,127.85266844503784 C339.7102046992188,126.77806044503785 342.1534726992188,125.25913144503784 344.9487916992189,124.28848944503784 C351.8419186992187,121.77181944503783 358.4642636992187,118.90540244503785 365.42919969921877,115.97779844503785 C378.82311969921875,109.62094844503784 391.8743896992187,103.32529444503785 405.2617796992188,96.95413544503785 C411.42452969921874,93.60300744503783 417.2890016992187,90.39119244503786 423.0367126992187,86.98245944503785 C423.89254769921877,86.47490244503784 424.1989136992188,85.04082044503784 425.16168169921866,84.01672344503784 C426.5062256992187,83.96936744503785 427.6684566992187,84.28984744503785 428.3562006992188,83.85682244503784 C433.97314469921866,80.32019044503784 439.5015566992188,76.64293244503784 445.3091426992187,72.78887844503785 C449.6203306992188,69.84637044503785 453.67926069921873,67.12341244503784 458.10845969921866,64.40595044503785 C460.7198786992187,62.62212744503785 462.9609676992188,60.832807445037844 465.20208769921874,59.04347744503784 M494.05761669921867,130.34985344503784 C491.9881286992188,131.37632744503784 489.78695669921876,132.20180444503785 487.8684086992189,133.45864844503785 C438.9611206992188,165.49822944503785 386.6708986992187,190.44132944503784 330.86309769921877,207.85455244503785 C281.8457026992187,223.14897144503783 231.68136569921876,232.19869944503785 180.31919869921876,234.28547644503783 C171.3153986992188,234.65129044503783 168.9961856992188,236.89219644503783 168.89688069921885,245.64233344503782 C168.41442869921866,288.1544944450378 170.41952469921875,330.55224544503784 174.59303269921884,372.86242644503784 C179.84768669921868,426.13275144503785 188.77510069921868,478.7377624450378 202.80357369921876,530.4253844450378 C220.7973476992188,596.7229614450379 246.35681169921872,659.7147214450379 284.9406736992187,716.9420774450379 C327.4945676992188,780.0578604450378 382.08608969921875,829.4315184450378 451.51647969921873,861.5031124450378 C465.65713469921866,868.0350334450378 480.55825769921876,872.9206534450378 495.8752136992189,878.5314934450379 C496.6804506992187,878.3179924450378 497.5028986992188,878.1544794450379 498.2884826992188,877.8839714450378 C569.3459476992189,853.4123534450379 628.7016596992189,812.0197744450378 676.6734006992187,754.2653804450379 C718.5934446992187,703.7967524450379 747.9777836992189,646.3923334450378 769.7525026992189,584.8532714450379 C791.5525516992188,523.2425534450379 804.8202516992187,459.66555744503785 812.6719356992189,394.91119344503784 C818.7302856992187,344.94747844503786 821.5237426992187,294.7752374450378 820.9286496992188,244.43154844503783 C820.8488156992189,237.67796244503785 818.0930786992187,234.68127344503785 811.4013666992187,234.2485194450378 C805.4243776992189,233.86196844503786 799.4405516992188,233.58241244503785 793.4622196992186,233.21543844503788 C762.6679686992188,231.32510344503783 732.2952876992188,226.52177344503787 702.2836916992187,219.51737944503782 C630.5477906992187,202.77494744503784 564.0205686992188,173.86039644503785 502.38336169921877,133.57411944503784 C500.1222226992188,132.09624444503783 497.30664069921886,131.46667444503782 494.05761669921867,130.34985344503784 z" id="svg_2" class=""/><path fill="#172740" opacity="1.000000" stroke="none" d="M465.20208769921874,59.04347744503784 C470.95074469921883,55.095111445037844 476.3410036992186,50.42532744503785 482.5249636992187,47.35306644503784 C494.31164569921884,41.497286445037844 505.45977769921865,44.069088445037835 515.5963746992188,51.997190445037845 C518.4157106992188,54.20225444503784 521.2615046992187,56.373479445037844 524.4513546992189,59.13490644503784 C527.7707516992186,61.593448445037836 530.7339476992188,63.477321445037845 533.9370726992188,65.51574244503784 C537.6743166992187,68.12084944503783 541.1716916992186,70.57141044503784 544.8697506992189,73.30565244503785 C558.2809446992187,81.39849044503785 571.4913936992189,89.20764844503785 585.0850216992187,96.98725044503783 C593.3300166992187,101.18672944503783 601.0997316992189,105.60082244503783 609.0873416992188,109.57727044503784 C614.0977786992189,112.07157844503786 619.4356076992187,113.90828644503785 624.8502806992187,116.32667444503784 C631.6791376992187,119.07527844503784 638.2843016992188,121.53726944503785 644.8782956992186,124.37137544503784 C651.3534546992187,127.17957244503785 657.8397216992189,129.61564544503784 664.7629396992188,132.21582744503786 C664.7629396992188,128.95503144503783 664.7629396992188,126.49764944503784 665.2348026992188,124.01556344503786 C672.0988766992186,124.00318144503785 678.4911496992188,124.01550244503784 684.8942256992186,124.49666544503785 C684.9050906992188,129.57368444503783 684.9050906992188,134.18184644503785 684.9050906992188,138.93181544503784 C691.8416136992187,140.71617844503783 698.4094236992187,142.40570044503784 705.2324826992187,144.05297844503784 C705.6524656992187,144.06208744503783 705.8171386992187,144.11343344503786 706.1796876992189,144.46337844503785 C712.3281856992187,146.21103644503785 718.2787476992189,147.66010244503784 724.5158686992188,149.17893944503783 C724.6448976992187,147.26367144503786 724.7546996992187,145.63360544503786 724.8733516992188,144.04038144503784 C724.8821406992188,144.07722444503784 724.8168336992187,144.11556244503782 725.2825926992186,144.05674744503784 C732.1275026992189,144.00949844503782 738.5066526992186,144.02107144503785 744.8950806992189,144.48530544503785 C744.9043576992187,147.56242344503784 744.9043576992187,150.18687344503786 744.9043576992187,153.40226744503784 C751.6993406992187,154.31296444503784 758.3350216992187,155.20231544503784 765.3461306992187,156.22007744503784 C771.1746216992187,156.97853844503783 776.6276856992188,157.60857344503785 782.4073486992188,158.44433544503784 C790.1635126992187,159.13355244503782 797.5930786992187,159.61705744503786 805.4338986992188,160.07767444503784 C812.1594236992187,160.39388944503784 818.4736326992188,160.73300844503785 825.2564696992188,161.12203944503784 C832.1154786992188,161.14167744503783 838.5059206992187,161.11141144503785 845.3458246992186,161.04122144503785 C848.8195796992186,161.01682244503786 851.8438716992187,161.03234044503785 855.3330686992188,161.06010344503784 C865.4959106992187,162.08527344503784 875.1938476992186,163.09821244503786 884.8917236992188,164.11114444503784 C884.8917236992188,164.11114444503784 884.7927246992188,164.10414044503784 884.8438106992189,164.47894244503783 C885.0554196992189,166.54940744503784 884.7796016992188,168.44792144503785 885.4562376992187,169.90371644503784 C887.7211306992187,174.77651944503785 890.3265376992188,179.49105744503785 892.8014526992188,184.26621944503785 C893.1635126992187,190.57536244503785 893.5255736992187,196.88449044503784 893.8644406992189,204.12860044503785 C894.1608886992187,211.46990944503784 894.4805906992187,217.87628144503788 894.8003536992187,224.28263844503783 C894.8129886992187,230.59054544503783 894.8256226992189,236.89845244503783 894.8343506992187,244.14306544503785 C894.8403926992187,251.38284244503785 894.8504026992186,257.6859434450379 894.8604126992186,263.98902844503783 C894.8826296992188,270.32667444503784 894.9049076992187,276.66433644503786 894.7822876992186,283.9128714450378 C894.3709716992189,293.23809744503785 894.1045536992187,301.6524654450378 893.8380736992187,310.06680244503787 C893.8500976992186,312.2161554450378 893.8621216992187,314.36550844503785 893.6084596992187,317.31310944503787 C892.8432006992189,327.08685244503783 892.3436276992188,336.06234644503786 891.8440546992188,345.03787144503787 C891.5520626992188,351.01211544503786 891.2601316992186,356.98638844503785 890.6793826992189,363.73718244503783 C889.8566896992188,371.12307644503784 889.3228756992189,377.73245144503784 888.7890016992187,384.34182644503784 C888.1383056992188,390.11773644503785 887.4876706992186,395.89364544503786 886.5798946992186,402.41702244503784 C885.7489016992188,407.94784544503784 885.0757446992188,412.7223504450378 884.6455686992188,417.51864544503786 C884.4496456992188,419.7034604450378 884.7340086992187,421.93136544503784 884.8004756992186,424.13970944503785 C884.8005366992188,424.13970944503785 884.7932736992188,424.04177844503783 884.4678346992187,424.15045144503785 C883.0416256992189,430.85763544503783 881.9407956992186,437.45617644503784 880.8511966992187,444.39819244503786 C879.8626096992189,451.12701344503785 878.8626706992186,457.51238944503785 877.6532596992188,464.23644944503786 C876.2494506992189,470.90292344503786 875.0552366992188,477.2307424450378 873.7567746992188,484.11071744503784 C877.6513056992187,484.11071744503784 881.2717286992188,484.11071744503784 884.8921506992187,484.11071744503784 C884.8921506992187,484.11071744503784 884.7933346992188,484.1041564450379 884.8463746992188,484.52444444503783 C884.8615116992187,491.3420404450378 884.8236086992188,497.7393484450379 884.7857056992189,504.1366574450378 C884.7857056992189,504.1366574450378 884.7932126992187,504.03802444503776 884.3746946992187,504.08941644503784 C879.3062136992189,504.14083844503784 874.6561886992188,504.14083844503784 869.3956906992189,504.14083844503784 C868.1771236992188,510.89141844503786 866.9807126992187,517.5190424450378 865.8027956992187,524.1015014450379 C865.8213496992189,524.0563044450378 865.9173586992188,524.0779104450378 865.6228636992187,523.9340814450379 C865.1740726992189,524.1875304450379 865.0197146992186,524.5847774450378 864.8156126992187,525.4015494450379 C864.6804196992189,526.0894464450378 864.5949706992187,526.3578184450378 864.3884886992187,526.9332574450378 C862.7957156992188,533.1643974450378 861.3238526992186,539.0884704450378 859.8551636992188,545.4191584450379 C858.1792606992187,551.8846434450378 856.5001216992187,557.9435424450378 854.6512446992188,564.3370354450378 C852.5899656992187,571.1803584450379 850.6984256992187,577.6890254450378 848.8781126992187,584.5291134450379 C848.4489746992188,586.3753654450378 847.9666136992187,587.8963004450378 847.4456786992187,589.4038694450378 C843.5521236992188,600.6712034450378 839.6508176992188,611.9358514450379 835.4349976992189,623.3464354450379 C832.6867066992188,630.3808584450378 830.2554316992187,637.2702024450379 827.8236086992188,644.1110834450378 C827.8230586992188,644.0624994450378 827.9200436992187,644.0587764450379 827.5896606992187,643.9840694450378 C827.1102296992187,644.3232414450379 826.9612426992187,644.7371824450379 826.8776246992188,645.5255734450378 C826.1226806992188,647.3557124450379 825.3023066992187,648.8114004450379 824.3490596992187,650.5664054450378 C822.4307246992189,655.2400504450378 820.6453246992187,659.6145014450378 818.8208616992188,664.3599844450379 C815.8155516992188,671.1130974450379 812.8493046992189,677.4951774450378 809.5790406992187,684.0708614450378 C807.6728516992189,687.9055784450378 806.0706176992187,691.5466914450378 804.2884516992187,695.4528804450379 C802.7018436992189,698.4295034450379 801.2951656992186,701.1411124450378 799.5780026992188,704.0305784450378 C795.7806396992187,711.0196524450379 792.2937006992188,717.8307494450379 788.6737056992188,724.9228514450378 C787.2880856992188,727.1754144450379 786.0355836992187,729.1468504450378 784.4458616992188,731.1768184450378 C781.6809086992189,735.5275264450379 779.2531126992187,739.8198234450379 776.6978146992187,744.4281004450379 C767.6318966992187,757.5588984450378 758.6936036992188,770.3737174450379 749.4274286992186,783.2537224450379 C747.5675656992189,785.6008294450378 746.0356446992187,787.8828124450379 744.2699586992187,790.3812864450379 C740.6286006992186,794.7617794450379 737.2210696992188,798.9257804450378 733.4871216992187,803.1751704450378 C730.2806396992187,806.8938594450378 727.4004516992186,810.5273434450378 724.2885746992188,814.3817744450379 C721.3427126992187,817.6406244450378 718.6286616992188,820.6785884450378 715.5471796992188,823.6973264450378 C711.6416016992189,827.4980464450379 708.1035156992189,831.3180534450379 704.3345336992188,835.3525384450378 C701.3722536992186,838.2904654450379 698.6408076992188,841.0139764450379 695.5449826992187,843.7413934450378 C691.6293946992187,847.2119744450379 688.0782466992187,850.6786494450379 684.3035276992186,854.3671874450379 C680.6998286992189,857.6021114450378 677.3197016992187,860.6153564450378 673.5713496992189,863.4763784450379 C670.2940066992187,865.9356684450379 667.3850096992187,868.5472404450378 664.2758176992188,871.4077754450378 C658.6923826992188,875.6618644450378 653.3090816992187,879.6668694450378 647.5363156992189,883.5815424450378 C646.2580566992187,884.3803704450379 645.3691406992189,885.2695914450378 644.2686766992188,886.4122314450378 C637.8371586992189,890.7943724450379 631.6171266992187,894.9230344450378 625.0088496992189,899.0164794450378 C622.0538936992189,900.6555784450378 619.4873046992188,902.3300164450378 616.6193236992187,904.1926264450378 C612.6781616992189,906.6026604450378 609.0383906992188,908.8244014450379 605.0005496992187,911.0342404450379 C598.4596556992187,914.1878044450378 592.2684326992189,917.2661124450378 586.2300416992189,920.6196894450378 C585.3952026992188,921.0833124450378 585.3166506992188,922.9087524450379 584.4496456992188,924.1259764450378 C582.2528076992189,924.1741324450378 580.2641596992189,923.6723624450378 578.7773436992188,924.3210444450378 C573.4233396992188,926.6566764450379 568.2385256992188,929.3803094450378 562.6741336992186,932.1588744450379 C556.4647826992186,934.6161494450379 550.5712276992188,936.8719474450378 544.3473506992186,939.2584224450378 C540.3814086992188,940.8938594450378 536.7456666992189,942.3985594450378 532.7887576992189,944.1010734450379 C530.1049806992187,945.2133174450379 527.7424316992187,946.1276854450379 524.9550166992187,946.9837644450379 C517.5654606992189,949.0965574450379 510.60086069921863,951.2675774450379 504.5375366992189,953.1575924450378 C504.6510926992187,955.4868154450378 504.7384946992188,957.2789304450379 504.82586669921875,959.0710444450378 C498.4714656992187,959.0710444450378 492.11706569921876,959.0710444450378 485.2579346992188,958.6501464450379 C484.7532046992187,956.5825194450379 484.7532046992187,954.9358514450379 484.7532046992187,952.8214104450378 C478.06771869921886,950.8888544450379 471.4579166992187,948.9781484450378 464.60778769921876,946.7925414450378 C461.7822876992186,945.6613154450379 459.19717369921864,944.8050534450379 456.43334969921875,943.6627194450379 C452.4614566992186,941.9494624450379 448.66827369921884,940.5222164450379 444.4891056992187,939.1323844450378 C437.7360536992187,936.4885244450378 431.3690186992187,933.8073114450378 424.79528769921876,930.8301384450378 C418.0287476992187,928.2489004450379 412.49670369921887,922.7910154450378 404.7601926992188,923.7619624450379 C404.79223669921885,922.6315914450379 405.1170346992187,921.3015744450379 404.8305356992187,921.1535024450378 C398.1799006992187,917.7133784450378 391.4629516992188,914.4014884450379 384.4434206992187,910.9384764450378 C380.3619076992188,908.5572504450379 376.5953066992188,906.3034664450379 372.8009946992188,903.7015374450378 C370.08770769921875,901.9215694450378 367.4021296992187,900.4898674450378 364.40353369921877,898.9389644450379 C357.95562769921867,894.5400384450378 351.82073969921885,890.2602534450378 345.5497736992188,885.6384274450378 C343.92871069921875,884.4598994450379 342.44375569921885,883.6235344450379 340.71478269921863,882.6508784450378 C335.5509946992188,878.6743154450378 330.63119469921867,874.8341064450378 325.6432496992188,870.6694334450378 C322.6309206992187,868.1588134450378 319.6867976992187,865.9725944450379 316.53845169921874,863.5394284450379 C312.6313476992186,860.2525024450379 308.92840569921873,857.2125854450378 305.3133236992187,853.8010244450378 C301.5021366992187,850.1744384450378 297.6030576992189,846.9193724450379 293.4533686992188,843.4855954450378 C290.53173869921875,840.5921014450379 287.8607486992187,837.8773184450379 285.22549469921887,834.7932124450379 C281.4266666992187,830.6364134450379 277.59213269921884,826.8491204450379 273.4382936992188,822.9548334450378 C270.5002436992188,819.9594724450378 267.88151569921865,817.0709834450379 265.4040526992187,813.8134764450378 C262.6183466992188,810.2420654450378 259.6913906992188,807.0397944450378 256.5583186992187,803.5939934450379 C252.64810169921884,798.9589834450378 248.9440006992188,794.5675044450378 245.36944569921866,789.8082274450378 C243.92062369921882,787.5723264450378 242.34226969921883,785.7041624450378 240.54853869921862,783.5958244450378 C237.75512669921864,779.9447624450379 235.2545166992188,776.4716184450378 232.57650769921884,773.1411734450378 C230.0862426992187,770.0442504450378 227.40696669921863,767.0992424450378 224.80987569921876,763.7210684450379 C220.86102269921867,756.9368894450379 216.91322369921863,750.5189204450378 213.1062006992188,743.7453604450378 C210.4775086992188,739.0120234450378 207.70803869921883,734.6342764450378 204.7656856992187,729.9522704450378 C203.37475569921867,727.7959594450379 202.1566776992188,725.9439084450379 201.06991569921865,723.7327264450379 C197.4485016992187,716.6659544450379 193.6957546992187,709.9582514450378 189.7542416992187,702.9408564450379 C188.09506269921872,699.8068844450379 186.62466469921878,696.9826654450378 185.16740369921877,693.7717284450379 C183.4381866992187,690.0139154450378 181.6958466992187,686.6428824450378 179.76258869921867,682.9535514450379 C176.66728169921885,676.5253904450378 173.7628936992187,670.4155264450378 170.9502566992187,663.9174804450379 C169.0671076992187,658.8668814450378 167.0921936992188,654.2042844450378 164.9325556992187,649.2043454450378 C164.10150169921872,647.2594604450378 163.45515469921884,645.6520994450378 162.72711169921877,643.6890864450378 C160.03030369921885,636.8681024450378 157.41520669921874,630.4026484450378 154.5654906992188,623.6514274450378 C149.84127769921884,610.3571774450378 145.35168469921882,597.3486934450378 140.97378569921875,583.9315794450379 C138.98422969921876,576.9410394450379 136.8829806992187,570.3591304450379 134.75444769921864,563.3913564450378 C133.08254969921882,556.6688224450378 131.43794269921864,550.3322134450378 129.76847069921882,543.6050414450378 C128.18404369921882,537.3011474450378 126.6244736992187,531.3879084450379 124.95498669921881,525.1268914450379 C124.83316069921875,524.5362844450378 124.82125869921879,524.2934264450378 124.78785669921876,523.6552734450379 C123.1043476992188,516.7724914450378 121.44232169921884,510.2850334450379 119.74332469921865,503.3928824450379 C118.4277496992188,496.7425834450378 117.14914669921882,490.4969784450378 115.93530269921871,483.81860344503787 C114.67427069921882,476.3820794450378 113.34847269921875,469.3782644450378 111.91508469921882,461.9356074450378 C110.8296736992188,455.75201344503785 109.85185269921885,450.00723244503786 108.9472426992188,443.81494044503785 C108.2135846992187,437.28744444503786 107.4417956992188,431.20220944503785 106.52821369921867,425.13836644503783 C106.46063269921865,424.6897274450378 105.37300869921864,424.39477444503785 104.75959769921883,424.02838044503784 C104.75960569921881,424.02838044503784 104.85979469921881,424.03652944503784 104.80790669921885,423.66332944503785 C104.18591269921876,415.3452754450378 103.61582169921871,407.40042044503787 103.04572269921869,399.45553544503787 C102.62779269921884,395.25628644503786 102.20986969921887,391.0570064450378 101.78094469921871,385.99676444503785 C101.09967769921877,377.50698844503785 100.4294126992188,369.87820344503785 99.75914769921883,362.2493894450378 C99.11144969921884,356.51611244503783 98.46375269921873,350.78280544503787 97.8953706992188,344.16827344503787 C97.58702869921876,336.88711544503786 97.19937869921887,330.48718244503783 96.81173669921873,324.08724944503786 C96.45447569921885,317.72991944503786 96.09721369921886,311.37255844503784 95.83395369921868,304.11218244503783 C95.90502169921865,302.05126944503786 95.88404869921874,300.8933714450378 95.85886369921877,299.73553444503784 C95.61132769921869,288.35453744503786 95.36310569921875,276.97355644503784 95.11506669921869,265.59255944503786 C95.02564269921868,265.38145444503783 94.93621069921869,265.17033344503784 94.94461069921886,264.1416774450378 C94.97999569921876,256.83785944503785 94.91755669921872,250.35156244503787 94.85511769921868,243.8652794450378 C94.8511046992187,243.63493344503786 94.84709969921869,243.4045864450378 94.86917069921878,242.50033544503788 C95.2020566992187,229.25097644503785 95.50886569921886,216.6755674450378 95.81567369921868,204.10014344503784 C96.12885269921867,198.32270744503785 96.44203169921866,192.54527244503785 97.10140269921885,186.03848244503783 C98.93626369921867,181.32899444503784 99.78192169921886,176.91148344503785 102.10374469921885,173.49807644503784 C104.2093126992188,170.40257244503783 105.49671169921885,167.63565044503784 104.86706569921876,164.00539344503784 C104.86706569921876,164.00539344503784 104.85924569921872,164.10457544503782 105.25629469921887,164.05281044503784 C107.78797869921868,164.03990144503786 110.33966869921869,164.86125944503783 111.9859616992187,163.98384044503786 C119.62460369921882,159.91268844503784 127.76833369921883,161.21965744503785 136.23904369921866,161.03683444503784 C139.38134769921885,161.04313644503785 142.0738216992188,161.06227044503783 145.23571769921864,161.13661944503784 C152.09159869921882,161.15222144503784 158.47810369921876,161.11260944503783 165.3292236992188,161.04152644503785 C172.08523569921863,160.70524544503786 178.37661769921874,160.40043544503783 185.1341096992187,160.17619244503783 C192.93337969921868,159.57662944503784 200.26650969921866,158.89649944503785 208.04815669921868,158.10849744503784 C213.90327469921885,157.36227344503783 219.30987569921876,156.72392244503783 225.15420569921866,156.14273744503782 C231.9156796992188,155.25776644503784 238.2393946992188,154.31562044503784 244.76570169921865,153.34329944503784 C244.76570169921865,149.94638044503785 244.76570169921865,146.98970744503782 245.2374576992188,144.01161144503783 C252.08464069921865,144.03173044503785 258.46005269921875,144.07325744503783 264.8027956992187,144.09564144503784 C264.7701416992188,144.07649144503785 264.7881466992187,144.00294444503783 264.83145169921863,144.42874144503784 C264.96382169921867,146.23282544503786 265.05290269921875,147.61110644503785 265.18145769921875,149.59999044503786 C271.7511286992187,147.66204044503786 277.7600096992187,145.88951844503782 283.9636836992188,144.04945344503784 C284.1584776992188,143.98190244503786 284.5499576992188,144.11138844503785 284.9662476992187,144.14591944503786 C291.98220869921875,142.12839444503783 298.58184769921877,140.07633144503785 305.5599976992187,137.98586944503785 C312.2067866992188,135.99268244503784 318.4750366992189,134.03788744503782 325.1236576992187,132.04231244503785 C329.3708186992187,130.63431544503783 333.2938846992188,129.40458644503784 337.08505269921875,127.85266844503784 C339.7102046992188,126.77806044503785 342.1534726992188,125.25913144503784 344.9487916992189,124.28848944503784 C351.8419186992187,121.77181944503783 358.4642636992187,118.90540244503785 365.42919969921877,115.97779844503785 C378.82311969921875,109.62094844503784 391.8743896992187,103.32529444503785 405.2617796992188,96.95413544503785 C411.42452969921874,93.60300744503783 417.2890016992187,90.39119244503786 423.0367126992187,86.98245944503785 C423.89254769921877,86.47490244503784 424.1989136992188,85.04082044503784 425.16168169921866,84.01672344503784 C426.5062256992187,83.96936744503785 427.6684566992187,84.28984744503785 428.3562006992188,83.85682244503784 C433.97314469921866,80.32019044503784 439.5015566992188,76.64293244503784 445.3091426992187,72.78887844503785 C449.6203306992188,69.84637044503785 453.67926069921873,67.12341244503784 458.10845969921866,64.40595044503785 C460.7198786992187,62.62212744503785 462.9609676992188,60.832807445037844 465.20208769921874,59.04347744503784 M494.05761669921867,130.34985344503784 C491.9881286992188,131.37632744503784 489.78695669921876,132.20180444503785 487.8684086992189,133.45864844503785 C438.9611206992188,165.49822944503785 386.6708986992187,190.44132944503784 330.86309769921877,207.85455244503785 C281.8457026992187,223.14897144503783 231.68136569921876,232.19869944503785 180.31919869921876,234.28547644503783 C171.3153986992188,234.65129044503783 168.9961856992188,236.89219644503783 168.89688069921885,245.64233344503782 C168.41442869921866,288.1544944450378 170.41952469921875,330.55224544503784 174.59303269921884,372.86242644503784 C179.84768669921868,426.13275144503785 188.77510069921868,478.7377624450378 202.80357369921876,530.4253844450378 C220.7973476992188,596.7229614450379 246.35681169921872,659.7147214450379 284.9406736992187,716.9420774450379 C327.4945676992188,780.0578604450378 382.08608969921875,829.4315184450378 451.51647969921873,861.5031124450378 C465.65713469921866,868.0350334450378 480.55825769921876,872.9206534450378 495.8752136992189,878.5314934450379 C496.6804506992187,878.3179924450378 497.5028986992188,878.1544794450379 498.2884826992188,877.8839714450378 C569.3459476992189,853.4123534450379 628.7016596992189,812.0197744450378 676.6734006992187,754.2653804450379 C718.5934446992187,703.7967524450379 747.9777836992189,646.3923334450378 769.7525026992189,584.8532714450379 C791.5525516992188,523.2425534450379 804.8202516992187,459.66555744503785 812.6719356992189,394.91119344503784 C818.7302856992187,344.94747844503786 821.5237426992187,294.7752374450378 820.9286496992188,244.43154844503783 C820.8488156992189,237.67796244503785 818.0930786992187,234.68127344503785 811.4013666992187,234.2485194450378 C805.4243776992189,233.86196844503786 799.4405516992188,233.58241244503785 793.4622196992186,233.21543844503788 C762.6679686992188,231.32510344503783 732.2952876992188,226.52177344503787 702.2836916992187,219.51737944503782 C630.5477906992187,202.77494744503784 564.0205686992188,173.86039644503785 502.38336169921877,133.57411944503784 C500.1222226992188,132.09624444503783 497.30664069921886,131.46667444503782 494.05761669921867,130.34985344503784 z" class="" id="svg_1"/><path fill="#60ABD2" opacity="1.000000" stroke="none" d="M495.4920046992188,878.5483394450379 C495.0149226992187,876.4055174450378 494.8394466992188,874.2457884450379 494.8389896992187,872.0861204450379 C494.8249816992188,806.0965574450379 494.82812469921873,740.1070554450379 495.2927856992187,673.5852654450379 C540.9169916992187,673.0401604450378 586.0769656992188,673.0334464450378 631.2369996992188,673.0109244450379 C645.9512326992187,673.0035394450379 653.7539066992188,665.2046504450378 653.7566526992186,650.5031734450379 C653.7658076992188,601.6768794450378 653.7604976992188,552.8505244450379 653.7604366992186,504.0242304450378 C653.7603756992189,478.0279844450379 653.7861936992188,452.0316764450378 653.7480466992188,426.03549144503785 C653.7287596992187,412.88845744503783 645.7762446992188,405.0101314450378 632.5568236992187,404.86602744503784 C627.8953856992189,404.8152464450378 623.2345576992188,404.71670444503786 618.5857546992188,404.2038874450378 C618.4125366992189,390.3009944450378 618.7775266992187,376.7999564450378 617.9415896992186,363.37365644503785 C615.0991206992187,317.7225944450378 593.0586546992188,283.9819174450379 553.3074336992188,261.77770944503783 C535.2092896992187,251.66842644503788 515.4901126992188,247.57829244503785 494.8574216992188,247.56449844503788 C494.8318786992188,208.81864844503784 494.80633569921883,170.07279944503784 494.76513669921883,130.88435344503785 C497.30664069921886,131.46667444503782 500.1222226992188,132.09624444503783 502.38336169921877,133.57411944503784 C564.0205686992188,173.86039644503785 630.5477906992187,202.77494744503784 702.2836916992187,219.51737944503782 C732.2952876992188,226.52177344503787 762.6679686992188,231.32510344503783 793.4622196992186,233.21543844503788 C799.4405516992188,233.58241244503785 805.4243776992189,233.86196844503786 811.4013666992187,234.2485194450378 C818.0930786992187,234.68127344503785 820.8488156992189,237.67796244503785 820.9286496992188,244.43154844503783 C821.5237426992187,294.7752374450378 818.7302856992187,344.94747844503786 812.6719356992189,394.91119344503784 C804.8202516992187,459.66555744503785 791.5525516992188,523.2425534450379 769.7525026992189,584.8532714450379 C747.9777836992189,646.3923334450378 718.5934446992187,703.7967524450379 676.6734006992187,754.2653804450379 C628.7016596992189,812.0197744450378 569.3459476992189,853.4123534450379 498.2884826992188,877.8839714450378 C497.5028986992188,878.1544794450379 496.6804506992187,878.3179924450378 495.4920046992188,878.5483394450379 z" class="" id="svg_620"/><path fill="#EEEEEE" opacity="1.000000" stroke="none" d="M1045.5588835146484,764.1030264450378 C1050.6490325146483,764.1351924450379 1055.7733615146485,764.1351924450379 1061.2463225146485,764.1351924450379 C1061.2463225146485,770.6578364450378 1061.2463225146485,777.1489864450378 1061.2463225146485,784.0659174450378 C1056.3057705146484,784.0659174450378 1051.3866425146484,784.0659174450378 1045.9960785146484,784.0364984450379 C1045.5247035146485,784.0070184450378 1045.5930635146483,784.0713494450379 1045.5966645146484,783.6322014450378 C1045.6204075146484,776.7972404450378 1045.6404875146484,770.4014274450378 1045.6605685146483,764.0055534450379 C1045.6605685146483,764.0055534450379 1045.5930635146483,764.0708004450379 1045.5588835146484,764.1030264450378 z" id="svg_101" class=""/><path fill="#78C5F1" opacity="1.000000" stroke="none" d="M495.10882569921887,878.5651854450379 C480.55825769921876,872.9206534450378 465.65713469921866,868.0350334450378 451.51647969921873,861.5031124450378 C382.08608969921875,829.4315184450378 327.4945676992188,780.0578604450378 284.9406736992187,716.9420774450379 C246.35681169921872,659.7147214450379 220.7973476992188,596.7229614450379 202.80357369921876,530.4253844450378 C188.77510069921868,478.7377624450378 179.84768669921868,426.13275144503785 174.59303269921884,372.86242644503784 C170.41952469921875,330.55224544503784 168.41442869921866,288.1544944450378 168.89688069921885,245.64233344503782 C168.9961856992188,236.89219644503783 171.3153986992188,234.65129044503783 180.31919869921876,234.28547644503783 C231.68136569921876,232.19869944503785 281.8457026992187,223.14897144503783 330.86309769921877,207.85455244503785 C386.6708986992187,190.44132944503784 438.9611206992188,165.49822944503785 487.8684086992189,133.45864844503785 C489.78695669921876,132.20180444503785 491.9881286992188,131.37632744503784 494.4191896992188,130.83839344503784 C494.80633569921883,170.07279944503784 494.8318786992188,208.81864844503784 494.3988956992189,247.67114244503784 C484.05822769921883,248.89707944503783 473.94696069921883,249.04042044503785 464.33190869921873,251.29756144503784 C410.7700496992188,263.87120044503786 372.1363216992188,312.7397764450378 371.7725826992187,367.66744944503785 C371.6909786992187,379.99188144503785 371.71450769921876,392.31707744503785 371.2366946992188,404.71810844503784 C365.4531856992187,404.8358454450378 360.1170346992187,404.7396844450378 354.79321269921866,404.95211744503786 C347.3163456992188,405.25045744503785 341.48522969921873,408.8085324450378 338.65853869921875,415.63604644503783 C336.9387206992187,419.79003844503785 336.2635196992187,424.65179444503786 336.2547606992189,429.1977844450378 C336.11346469921864,502.3372184450378 336.1548156992187,575.4770504450379 336.1564936992188,648.6167594450378 C336.15652469921883,649.9494014450379 336.1123356992189,651.2864374450378 336.2003176992189,652.6140134450378 C337.05978369921877,665.5830074450379 344.8983456992187,672.9838254450378 357.89205969921886,673.0068964450378 C377.55142169921874,673.0418694450378 397.21090669921887,672.9942014450378 416.87030069921866,673.0223384450378 C442.85693369921864,673.0595694450378 468.8435366992187,673.1361694450378 494.82937669921876,673.6566154450378 C494.82812469921873,740.1070554450379 494.8249816992188,806.0965574450379 494.8389896992187,872.0861204450379 C494.8394466992188,874.2457884450379 495.0149226992187,876.4055174450378 495.10882569921887,878.5651854450379 z" id="svg_165" class=""/><path fill="#60ABD2" opacity="1.000000" stroke="none" d="M495.4920046992188,878.5483394450379 C495.0149226992187,876.4055174450378 494.8394466992188,874.2457884450379 494.8389896992187,872.0861204450379 C494.8249816992188,806.0965574450379 494.82812469921873,740.1070554450379 495.2927856992187,673.5852654450379 C540.9169916992187,673.0401604450378 586.0769656992188,673.0334464450378 631.2369996992188,673.0109244450379 C645.9512326992187,673.0035394450379 653.7539066992188,665.2046504450378 653.7566526992186,650.5031734450379 C653.7658076992188,601.6768794450378 653.7604976992188,552.8505244450379 653.7604366992186,504.0242304450378 C653.7603756992189,478.0279844450379 653.7861936992188,452.0316764450378 653.7480466992188,426.03549144503785 C653.7287596992187,412.88845744503783 645.7762446992188,405.0101314450378 632.5568236992187,404.86602744503784 C627.8953856992189,404.8152464450378 623.2345576992188,404.71670444503786 618.5857546992188,404.2038874450378 C618.4125366992189,390.3009944450378 618.7775266992187,376.7999564450378 617.9415896992186,363.37365644503785 C615.0991206992187,317.7225944450378 593.0586546992188,283.9819174450379 553.3074336992188,261.77770944503783 C535.2092896992187,251.66842644503788 515.4901126992188,247.57829244503785 494.8574216992188,247.56449844503788 C494.8318786992188,208.81864844503784 494.80633569921883,170.07279944503784 494.76513669921883,130.88435344503785 C497.30664069921886,131.46667444503782 500.1222226992188,132.09624444503783 502.38336169921877,133.57411944503784 C564.0205686992188,173.86039644503785 630.5477906992187,202.77494744503784 702.2836916992187,219.51737944503782 C732.2952876992188,226.52177344503787 762.6679686992188,231.32510344503783 793.4622196992186,233.21543844503788 C799.4405516992188,233.58241244503785 805.4243776992189,233.86196844503786 811.4013666992187,234.2485194450378 C818.0930786992187,234.68127344503785 820.8488156992189,237.67796244503785 820.9286496992188,244.43154844503783 C821.5237426992187,294.7752374450378 818.7302856992187,344.94747844503786 812.6719356992189,394.91119344503784 C804.8202516992187,459.66555744503785 791.5525516992188,523.2425534450379 769.7525026992189,584.8532714450379 C747.9777836992189,646.3923334450378 718.5934446992187,703.7967524450379 676.6734006992187,754.2653804450379 C628.7016596992189,812.0197744450378 569.3459476992189,853.4123534450379 498.2884826992188,877.8839714450378 C497.5028986992188,878.1544794450379 496.6804506992187,878.3179924450378 495.4920046992188,878.5483394450379 z" id="svg_166" class=""/><path fill="#F2D53D" opacity="1.000000" stroke="none" d="M618.5734256992187,404.63995344503786 C623.2345576992188,404.71670444503786 627.8953856992189,404.8152464450378 632.5568236992187,404.86602744503784 C645.7762446992188,405.0101314450378 653.7287596992187,412.88845744503783 653.7480466992188,426.03549144503785 C653.7861936992188,452.0316764450378 653.7603756992189,478.0279844450379 653.7604366992186,504.0242304450378 C653.7604976992188,552.8505244450379 653.7658076992188,601.6768794450378 653.7566526992186,650.5031734450379 C653.7539066992188,665.2046504450378 645.9512326992187,673.0035394450379 631.2369996992188,673.0109244450379 C586.0769656992188,673.0334464450378 540.9169916992187,673.0401604450378 495.29357869921887,673.1243894450379 C468.8435366992187,673.1361694450378 442.85693369921864,673.0595694450378 416.87030069921866,673.0223384450378 C397.21090669921887,672.9942014450378 377.55142169921874,673.0418694450378 357.89205969921886,673.0068964450378 C344.8983456992187,672.9838254450378 337.05978369921877,665.5830074450379 336.2003176992189,652.6140134450378 C336.1123356992189,651.2864374450378 336.15652469921883,649.9494014450379 336.1564936992188,648.6167594450378 C336.1548156992187,575.4770504450379 336.11346469921864,502.3372184450378 336.2547606992189,429.1977844450378 C336.2635196992187,424.65179444503786 336.9387206992187,419.79003844503785 338.65853869921875,415.63604644503783 C341.48522969921873,408.8085324450378 347.3163456992188,405.25045744503785 354.79321269921866,404.95211744503786 C360.1170346992187,404.7396844450378 365.4531856992187,404.8358454450378 371.7062376992187,404.8294064450378 C385.3966366992188,404.7888784450378 398.1645506992188,404.71322544503784 411.3853756992187,404.7189934450378 C424.5987246992188,404.81997644503787 437.35940569921877,404.8858944450378 450.11972069921876,404.84686244503786 C465.02612269921883,404.80126944503786 479.9322506992187,404.66412344503783 495.2927856992187,404.6775204450378 C523.4695436992188,404.7438964450378 551.1920166992186,404.69946244503785 579.3669436992186,404.75372244503785 C592.7374266992188,404.78161544503786 605.6553956992188,404.71078444503786 618.5734256992187,404.63995344503786 M505.6945796992188,472.5015864450379 C499.1336666992188,472.36224344503785 492.3583986992187,471.09368844503786 486.0512086992187,472.29092344503783 C465.4000546992188,476.2108764450379 450.23846469921864,494.3155814450379 451.0854796992187,516.3843984450378 C451.7347106992188,533.2996824450379 460.0233766992187,546.4135434450378 475.6954036992188,553.9576414450379 C478.92138669921883,555.5106194450378 479.93618769921886,557.3988034450379 479.9004516992188,560.8496084450378 C479.7367246992187,576.6611324450379 479.96865869921885,592.4773554450378 479.73760969921886,608.2871694450379 C479.6736146992189,612.6646114450378 480.58050569921875,614.5781244450378 485.4338686992187,614.2386474450378 C491.7283626992187,613.7982784450378 498.09387169921865,613.8483884450378 504.39642369921876,614.2270504450379 C508.8507076992187,614.4946894450378 510.04101569921886,613.0444334450378 509.9700316992187,608.6426384450378 C509.7097476992187,592.5007324450379 509.78808569921875,576.3510734450379 509.98211669921875,560.2073364450379 C510.0028986992188,558.4763784450379 511.16961669921875,555.8682244450379 512.5548706992188,555.1826774450378 C526.2523196992188,548.4038994450378 534.7850956992188,537.8695974450379 538.1303096992187,522.8281554450379 C542.8466796992188,501.62152044503785 527.8354496992188,477.61224344503785 505.6945796992188,472.5015864450379 M614.4240726992189,552.9845574450378 C622.6547846992189,552.0332634450378 626.9194336992186,547.8756404450378 626.9355466992188,540.2945554450378 C627.0010986992188,509.4696954450378 627.0261226992188,478.6441954450379 626.8482056992189,447.8202204450378 C626.8330686992188,445.19561744503784 625.7318726992189,442.2184744450378 624.2219846992189,440.03729244503785 C621.2363886992189,435.7242424450378 615.7249756992187,434.39013644503785 610.8512576992189,436.0627434450378 C605.5301516992188,437.88891544503787 602.5853876992187,442.0181884450378 602.5728756992189,448.36093044503787 C602.5128176992189,478.85256944503783 602.5011596992188,509.3444824450378 602.5733646992187,539.8360894450378 C602.5914916992188,547.4764094450379 605.5835566992187,550.8155514450378 614.4240726992189,552.9845574450378 M602.5306396992187,610.5710444450378 C602.5391846992188,617.0671994450379 602.4372556992189,623.5659174450378 602.5853266992187,630.0588984450378 C602.7561036992188,637.5472404450378 608.2512206992187,643.0598144450379 615.0672606992189,642.8380734450378 C621.7804566992188,642.6196284450378 626.8994746992189,637.2003774450378 626.9437866992189,629.9660644450379 C627.0253906992189,616.6409294450378 627.0217286992188,603.3145744450378 626.9434816992189,589.9893794450378 C626.8986206992188,582.3375854450378 621.8336176992188,577.1130974450379 614.6961056992186,577.0848384450378 C607.7714236992188,577.0573114450378 602.7769776992186,582.0832514450378 602.5899046992188,589.5836784450379 C602.4238886992189,596.2424924450379 602.5391846992188,602.9083244450378 602.5306396992187,610.5710444450378 z" id="svg_377" class=""/><path fill="#FEFEFF" opacity="1.000000" stroke="none" d="M618.5857546992188,404.20385644503784 C605.6553956992188,404.71078444503786 592.7374266992188,404.78161544503786 579.3663936992189,404.31762644503783 C578.5775756992189,388.0041194450378 579.5070186992189,372.07550044503785 577.6583246992186,356.47607344503785 C572.9354856992186,316.62356544503785 535.0143436992189,285.45931944503786 494.3921816992188,287.10583444503783 C482.79119869921874,286.79002344503783 471.97766069921863,288.6939844450378 461.8732296992189,293.2814024450378 C432.99169969921877,306.39364544503786 415.2541506992188,328.35607844503784 411.92083769921874,360.25149444503785 C410.3878176992189,374.9210814450378 411.1894836992187,389.83465544503787 410.93249469921875,404.63757244503785 C398.1645506992188,404.71322544503784 385.3966366992188,404.7888784450378 372.1591486992188,404.75323444503783 C371.71450769921876,392.31707744503785 371.6909786992187,379.99188144503785 371.7725826992187,367.66744944503785 C372.1363216992188,312.7397764450378 410.7700496992188,263.87120044503786 464.33190869921873,251.29756144503784 C473.94696069921883,249.04042044503785 484.05822769921883,248.89707944503783 494.3988956992189,247.67114244503784 C515.4901126992188,247.57829244503785 535.2092896992187,251.66842644503788 553.3074336992188,261.77770944503783 C593.0586546992188,283.9819174450379 615.0991206992187,317.7225944450378 617.9415896992186,363.37365644503785 C618.7775266992187,376.7999564450378 618.4125366992189,390.3009944450378 618.5857546992188,404.20385644503784 z" id="svg_378" class=""/><path fill="#61ABD2" opacity="1.000000" stroke="none" d="M494.8516846992188,287.15788244503784 C535.0143436992189,285.45931944503786 572.9354856992186,316.62356544503785 577.6583246992186,356.47607344503785 C579.5070186992189,372.07550044503785 578.5775756992189,388.0041194450378 578.9139406992188,404.21893244503786 C551.1920166992186,404.69946244503785 523.4695436992188,404.7438964450378 495.28692669921884,404.24615444503786 C494.8351136992187,364.8552544450378 494.84338369921875,326.00656044503785 494.8516846992188,287.15788244503784 z" id="svg_505" class=""/><path fill="#79C5F0" opacity="1.000000" stroke="none" d="M494.3921816992188,287.10583444503783 C494.84338369921875,326.00656044503785 494.8351136992187,364.8552544450378 494.8326416992188,404.13531444503786 C479.9322506992187,404.66412344503783 465.02612269921883,404.80126944503786 450.11972069921876,404.84686244503786 C437.35940569921877,404.8858944450378 424.5987246992188,404.81997644503787 411.3853756992187,404.7189934450378 C411.1894836992187,389.83465544503787 410.3878176992189,374.9210814450378 411.92083769921874,360.25149444503785 C415.2541506992188,328.35607844503784 432.99169969921877,306.39364544503786 461.8732296992189,293.2814024450378 C471.97766069921863,288.6939844450378 482.79119869921874,286.79002344503783 494.3921816992188,287.10583444503783 z" id="svg_506" class=""/><path fill="#CE9234" opacity="1.000000" stroke="none" d="M506.0800776992187,472.6509394450379 C527.8354496992188,477.61224344503785 542.8466796992188,501.62152044503785 538.1303096992187,522.8281554450379 C534.7850956992188,537.8695974450379 526.2523196992188,548.4038994450378 512.5548706992188,555.1826774450378 C511.16961669921875,555.8682244450379 510.0028986992188,558.4763784450379 509.98211669921875,560.2073364450379 C509.78808569921875,576.3510734450379 509.7097476992187,592.5007324450379 509.9700316992187,608.6426384450378 C510.04101569921886,613.0444334450378 508.8507076992187,614.4946894450378 504.39642369921876,614.2270504450379 C498.09387169921865,613.8483884450378 491.7283626992187,613.7982784450378 485.4338686992187,614.2386474450378 C480.58050569921875,614.5781244450378 479.6736146992189,612.6646114450378 479.73760969921886,608.2871694450379 C479.96865869921885,592.4773554450378 479.7367246992187,576.6611324450379 479.9004516992188,560.8496084450378 C479.93618769921886,557.3988034450379 478.92138669921883,555.5106194450378 475.6954036992188,553.9576414450379 C460.0233766992187,546.4135434450378 451.7347106992188,533.2996824450379 451.0854796992187,516.3843984450378 C450.23846469921864,494.3155814450379 465.4000546992188,476.2108764450379 486.0512086992187,472.29092344503783 C492.3583986992187,471.09368844503786 499.1336666992188,472.36224344503785 506.0800776992187,472.6509394450379 z" id="svg_507" class=""/><path fill="#FFFFFE" opacity="1.000000" stroke="none" d="M614.0232546992188,552.9697874450378 C605.5835566992187,550.8155514450378 602.5914916992188,547.4764094450379 602.5733646992187,539.8360894450378 C602.5011596992188,509.3444824450378 602.5128176992189,478.85256944503783 602.5728756992189,448.36093044503787 C602.5853876992187,442.0181884450378 605.5301516992188,437.88891544503787 610.8512576992189,436.0627434450378 C615.7249756992187,434.39013644503785 621.2363886992189,435.7242424450378 624.2219846992189,440.03729244503785 C625.7318726992189,442.2184744450378 626.8330686992188,445.19561744503784 626.8482056992189,447.8202204450378 C627.0261226992188,478.6441954450379 627.0010986992188,509.4696954450378 626.9355466992188,540.2945554450378 C626.9194336992186,547.8756404450378 622.6547846992189,552.0332634450378 614.0232546992188,552.9697874450378 z" id="svg_508" class=""/><path fill="#FFFFFE" opacity="1.000000" stroke="none" d="M602.5304566992188,610.0710444450378 C602.5391846992188,602.9083244450378 602.4238886992189,596.2424924450379 602.5899046992188,589.5836784450379 C602.7769776992186,582.0832514450378 607.7714236992188,577.0573114450378 614.6961056992186,577.0848384450378 C621.8336176992188,577.1130974450379 626.8986206992188,582.3375854450378 626.9434816992189,589.9893794450378 C627.0217286992188,603.3145744450378 627.0253906992189,616.6409294450378 626.9437866992189,629.9660644450379 C626.8994746992189,637.2003774450378 621.7804566992188,642.6196284450378 615.0672606992189,642.8380734450378 C608.2512206992187,643.0598144450379 602.7561036992188,637.5472404450378 602.5853266992187,630.0588984450378 C602.4372556992189,623.5659174450378 602.5391846992188,617.0671994450379 602.5304566992188,610.0710444450378 z" id="svg_509" class=""/></g></svg>